<?xml version="1.0" encoding="UTF-8"?>
<!-- Created with Inkscape (http://www.inkscape.org/) version 0.48.4 (r9939) -->
<svg xmlns="http://www.w3.org/2000/svg" width="434" height="260" version="1.1">
 <g transform="translate(-11.171875,-797.36218)">
 <rect style="fill:#00f;fill-opacity:0.05;stroke:#000;stroke-width:1.5;stroke-linecap:round;stroke-linejoin:round" width="349" height="39" x="85.5" y="977.771"/>
 <rect style="fill:#00f;fill-opacity:0.05;stroke:#000;stroke-width:1.5;stroke-linecap:round;stroke-linejoin:round" width="349" height="39" x="85.5" y="907.815"/>
 <rect style="fill:#00f;fill-opacity:0.05;stroke:#000;stroke-width:1.5;stroke-linecap:round;stroke-linejoin:round" width="349" height="39" x="85.5" y="837.862"/>
 <g>
 <path d="m21.171875,861.45056 0,-11.45312 1.515625,0 0,10.10156 5.640625,0 0,1.35156z"/>
 <path d="m35.375,860.42712c-0.520839,0.44271 -1.022141,0.75521 -1.503906,0.9375 -0.481776,0.1823 -0.998702,0.27344 -1.550782,0.27344 -0.91146,0 -1.61198,-0.22265 -2.101562,-0.66797 -0.489584,-0.44531 -0.734376,-1.01432 -0.734375,-1.70703 -1e-6,-0.40625 0.09245,-0.77734 0.277344,-1.11328 0.184895,-0.33593 0.427082,-0.60546 0.726562,-0.80859 0.299478,-0.20312 0.636717,-0.35677 1.011719,-0.46094 0.276039,-0.0729 0.692705,-0.14323 1.25,-0.21094 1.135412,-0.13541 1.971348,-0.29687 2.507812,-0.48437 0.0052,-0.19271 0.0078,-0.3151 0.0078,-0.36719 -6e-6,-0.57291 -0.132819,-0.97656 -0.398438,-1.21094 -0.35938,-0.3177 -0.893234,-0.47655 -1.601562,-0.47656 -0.661462,10e-6 -1.149743,0.11589 -1.464844,0.34766 -0.315106,0.23177 -0.548179,0.64193 -0.699219,1.23046l-1.375,-0.1875c0.125,-0.58853 0.330729,-1.06379 0.617188,-1.42578 0.286457,-0.36197 0.700519,-0.64061 1.242187,-0.83593 0.541664,-0.19531 1.169267,-0.29296 1.882813,-0.29297 0.708328,10e-6 1.283848,0.0833 1.726562,0.25 0.442702,0.16667 0.768223,0.37631 0.976563,0.6289 0.208326,0.25261 0.354159,0.57162 0.4375,0.95703 0.04687,0.23959 0.0703,0.67189 0.07031,1.29688l0,1.875c-7e-6,1.30729 0.02994,2.13411 0.08984,2.48047 0.05989,0.34635 0.178378,0.67838 0.355469,0.99609l-1.46875,0c-0.14584,-0.29166 -0.23959,-0.63281 -0.28125,-1.02344zm-0.117188,-3.14062c-0.510422,0.20834 -1.276046,0.38542 -2.296875,0.53125 -0.578128,0.0833 -0.986982,0.17709 -1.226562,0.28125 -0.239586,0.10417 -0.424482,0.25651 -0.554688,0.45703 -0.13021,0.20052 -0.195314,0.42318 -0.195312,0.66797 -2e-6,0.375 0.141925,0.6875 0.425781,0.9375 0.283852,0.25 0.699216,0.375 1.246094,0.375 0.541662,0 1.023433,-0.11849 1.445312,-0.35547 0.42187,-0.23698 0.731765,-0.5612 0.929688,-0.97266 0.151035,-0.3177 0.226556,-0.78645 0.226562,-1.40625z"/>
 <path d="m38.804687,864.64587 -0.15625,-1.32031c0.307291,0.0833 0.57552,0.125 0.804688,0.125 0.312498,0 0.562498,-0.0521 0.75,-0.15625 0.187497,-0.10417 0.341143,-0.25 0.460937,-0.4375 0.08854,-0.14062 0.231768,-0.48958 0.429688,-1.04687 0.02604,-0.0781 0.0677,-0.19271 0.125,-0.34375l-3.148438,-8.3125 1.515625,0 1.726563,4.80468c0.223955,0.60938 0.424475,1.25001 0.601562,1.92188 0.161455,-0.64583 0.354163,-1.27604 0.578125,-1.89063l1.773438,-4.83593 1.40625,0 -3.15625,8.4375c-0.338546,0.91145 -0.601567,1.53906 -0.789063,1.88281 -0.250003,0.46354 -0.536461,0.80338 -0.859375,1.01953 -0.322919,0.21614 -0.708335,0.32422 -1.15625,0.32422 -0.270834,0 -0.572917,-0.0573 -0.90625,-0.17188z"/>
 <path d="M52.546875,858.77869 54,858.95837c-0.229175,0.84896 -0.653653,1.50782 -1.273438,1.97657 -0.619797,0.46875 -1.411463,0.70312 -2.375,0.70312 -1.213544,0 -2.175783,-0.3737 -2.886718,-1.12109 -0.710939,-0.7474 -1.066407,-1.79557 -1.066407,-3.14453 0,-1.39583 0.359375,-2.47916 1.078125,-3.25 0.718748,-0.77083 1.651039,-1.15624 2.796875,-1.15625 1.10937,10e-6 2.015619,0.37761 2.71875,1.13281 0.703118,0.75521 1.05468,1.81771 1.054688,3.1875 -8e-6,0.0833 -0.0026,0.20834 -0.0078,0.375l-6.1875,0c0.05208,0.91146 0.309894,1.60938 0.773438,2.09375 0.463538,0.48438 1.041663,0.72656 1.734375,0.72656 0.51562,0 0.955724,-0.13541 1.320312,-0.40625 0.364578,-0.27083 0.65364,-0.70312 0.867188,-1.29687zm-4.617188,-2.27344 4.632813,0c-0.06251,-0.69791 -0.23959,-1.22135 -0.53125,-1.57031 -0.447922,-0.54166 -1.028651,-0.8125 -1.742188,-0.8125 -0.645837,0 -1.188805,0.21615 -1.628906,0.64843 -0.440106,0.4323 -0.683596,1.01043 -0.730469,1.73438z"/>
 <path d="m55.757812,861.45056 0,-8.29687 1.265625,0 0,1.25781c0.322915,-0.58854 0.621091,-0.97656 0.894532,-1.16406 0.273434,-0.1875 0.574215,-0.28124 0.902343,-0.28125 0.473954,10e-6 0.955725,0.15105 1.445313,0.45312L59.78125,854.724c-0.343755,-0.20312 -0.687504,-0.30468 -1.03125,-0.30469 -0.307295,10e-6 -0.583337,0.0925 -0.828125,0.27735 -0.244795,0.1849 -0.419274,0.44141 -0.523438,0.76953 -0.156252,0.5 -0.234377,1.04688 -0.234375,1.64062l0,4.34375z"/>
 <path d="m65.164062,858.45056 1.476563,-0.125c0.109373,0.71875 0.363279,1.25912 0.761719,1.6211 0.398434,0.36198 0.878902,0.54296 1.441406,0.54296 0.677078,0 1.249994,-0.2552 1.71875,-0.76562 0.468743,-0.51042 0.703118,-1.1875 0.703125,-2.03125 -7e-6,-0.80208 -0.225267,-1.43489 -0.675781,-1.89844 -0.450527,-0.46353 -1.04037,-0.6953 -1.769532,-0.69531 -0.453128,10e-6 -0.861982,0.10287 -1.226562,0.30859 -0.364586,0.20574 -0.651044,0.47266 -0.859375,0.80078l-1.320313,-0.17187 1.109375,-5.88281 5.695313,0 0,1.34375 -4.570313,0 -0.617187,3.07812c0.687497,-0.47916 1.40885,-0.71874 2.164062,-0.71875 0,10e-6 1.843744,0.34636 2.53125,1.03906 0.687493,0.69272 1.031242,1.58334 1.03125,2.67188 -8e-6,1.03646 -0.302091,1.93229 -0.90625,2.6875 -0.734381,0.92708 -1.736984,1.39062 -3.007812,1.39062 -1.04167,0 -1.89193,-0.29166 -2.550781,-0.875 -0.658856,-0.58333 -1.035157,-1.35676 -1.128907,-2.32031z"/>
 </g>
 <g>
 <path d="m21.171875,931.40515 0,-11.45312 1.515625,0 0,10.10156 5.640625,0 0,1.35156z"/>
 <path d="m35.375,930.38171c-0.520839,0.44271 -1.022141,0.75521 -1.503906,0.9375 -0.481776,0.1823 -0.998702,0.27344 -1.550782,0.27344 -0.91146,0 -1.61198,-0.22265 -2.101562,-0.66797 -0.489584,-0.44531 -0.734376,-1.01432 -0.734375,-1.70703 -1e-6,-0.40625 0.09245,-0.77734 0.277344,-1.11328 0.184895,-0.33593 0.427082,-0.60546 0.726562,-0.80859 0.299478,-0.20312 0.636717,-0.35677 1.011719,-0.46094 0.276039,-0.0729 0.692705,-0.14323 1.25,-0.21094 1.135412,-0.13541 1.971348,-0.29687 2.507812,-0.48437 0.0052,-0.19271 0.0078,-0.3151 0.0078,-0.36719 -6e-6,-0.57291 -0.132819,-0.97656 -0.398438,-1.21094 -0.35938,-0.3177 -0.893234,-0.47655 -1.601562,-0.47656 -0.661462,10e-6 -1.149743,0.11589 -1.464844,0.34766 -0.315106,0.23177 -0.548179,0.64193 -0.699219,1.23046l-1.375,-0.1875c0.125,-0.58853 0.330729,-1.06379 0.617188,-1.42578 0.286457,-0.36197 0.700519,-0.64061 1.242187,-0.83593 0.541664,-0.19531 1.169267,-0.29297 1.882813,-0.29297 0.708328,0 1.283848,0.0833 1.726562,0.25 0.442702,0.16667 0.768223,0.37631 0.976563,0.6289 0.208326,0.25261 0.354159,0.57162 0.4375,0.95703 0.04687,0.23959 0.0703,0.67188 0.07031,1.29688l0,1.875c-7e-6,1.30729 0.02994,2.13411 0.08984,2.48047 0.05989,0.34635 0.178378,0.67838 0.355469,0.99609l-1.46875,0c-0.14584,-0.29167 -0.23959,-0.63281 -0.28125,-1.02344zm-0.117188,-3.14062c-0.510422,0.20834 -1.276046,0.38542 -2.296875,0.53125 -0.578128,0.0833 -0.986982,0.17709 -1.226562,0.28125 -0.239586,0.10417 -0.424482,0.25651 -0.554688,0.45703 -0.13021,0.20052 -0.195314,0.42318 -0.195312,0.66797 -2e-6,0.375 0.141925,0.6875 0.425781,0.9375 0.283852,0.25 0.699216,0.375 1.246094,0.375 0.541662,0 1.023433,-0.11849 1.445312,-0.35547 0.42187,-0.23698 0.731765,-0.5612 0.929688,-0.97266 0.151035,-0.3177 0.226556,-0.78645 0.226562,-1.40625z"/>
 <path d="m38.804687,934.60046 -0.15625,-1.32031c0.307291,0.0833 0.57552,0.125 0.804688,0.125 0.312498,0 0.562498,-0.0521 0.75,-0.15625 0.187497,-0.10417 0.341143,-0.25 0.460937,-0.4375 0.08854,-0.14062 0.231768,-0.48958 0.429688,-1.04687 0.02604,-0.0781 0.0677,-0.19271 0.125,-0.34375l-3.148438,-8.3125 1.515625,0 1.726563,4.80468c0.223955,0.60938 0.424475,1.25001 0.601562,1.92188 0.161455,-0.64583 0.354163,-1.27604 0.578125,-1.89063l1.773438,-4.83593 1.40625,0 -3.15625,8.4375c-0.338546,0.91145 -0.601567,1.53906 -0.789063,1.88281 -0.250003,0.46354 -0.536461,0.80338 -0.859375,1.01953 -0.322919,0.21614 -0.708335,0.32422 -1.15625,0.32422 -0.270834,0 -0.572917,-0.0573 -0.90625,-0.17188z"/>
 <path d="M52.546875,928.73328 54,928.91296c-0.229175,0.84896 -0.653653,1.50782 -1.273438,1.97657 -0.619797,0.46875 -1.411463,0.70312 -2.375,0.70312 -1.213544,0 -2.175783,-0.3737 -2.886718,-1.12109 -0.710939,-0.7474 -1.066407,-1.79557 -1.066407,-3.14453 0,-1.39583 0.359375,-2.47916 1.078125,-3.25 0.718748,-0.77083 1.651039,-1.15625 2.796875,-1.15625 1.10937,0 2.015619,0.37761 2.71875,1.13281 0.703118,0.75521 1.05468,1.81771 1.054688,3.1875 -8e-6,0.0833 -0.0026,0.20834 -0.0078,0.375l-6.1875,0c0.05208,0.91146 0.309894,1.60938 0.773438,2.09375 0.463538,0.48438 1.041663,0.72656 1.734375,0.72656 0.51562,0 0.955724,-0.13541 1.320312,-0.40625 0.364578,-0.27083 0.65364,-0.70312 0.867188,-1.29687zm-4.617188,-2.27344 4.632813,0c-0.06251,-0.69791 -0.23959,-1.22135 -0.53125,-1.57031 -0.447922,-0.54166 -1.028651,-0.8125 -1.742188,-0.8125 -0.645837,0 -1.188805,0.21615 -1.628906,0.64843 -0.440106,0.4323 -0.683596,1.01043 -0.730469,1.73438z"/>
 <path d="m55.757812,931.40515 0,-8.29687 1.265625,0 0,1.25781c0.322915,-0.58854 0.621091,-0.97656 0.894532,-1.16406 0.273434,-0.1875 0.574215,-0.28125 0.902343,-0.28125 0.473954,0 0.955725,0.15105 1.445313,0.45312l-0.484375,1.30469c-0.343755,-0.20312 -0.687504,-0.30468 -1.03125,-0.30469 -0.307295,10e-6 -0.583337,0.0925 -0.828125,0.27735 -0.244795,0.1849 -0.419274,0.44141 -0.523438,0.76953 -0.156252,0.5 -0.234377,1.04688 -0.234375,1.64062l0,4.34375z"/>
 <path d="m69.671875,931.40515 0,-2.74219 -4.96875,0 0,-1.28906 5.226562,-7.42187 1.148438,0 0,7.42187 1.546875,0 0,1.28906 -1.546875,0 0,2.74219zm0,-4.03125 0,-5.16406 -3.585938,5.16406z"/>
 </g>
 <g>
 <path d="m21.171875,1001.3832 0,-11.45315 1.515625,0 0,10.10155 5.640625,0 0,1.3516z"/>
 <path d="m35.375,1000.3597c-0.520839,0.4428 -1.022141,0.7552 -1.503906,0.9375 -0.481776,0.1823 -0.998702,0.2735 -1.550782,0.2735 -0.91146,0 -1.61198,-0.2227 -2.101562,-0.668 -0.489584,-0.4453 -0.734376,-1.01431 -0.734375,-1.70702 -1e-6,-0.40625 0.09245,-0.77734 0.277344,-1.11328 0.184895,-0.33594 0.427082,-0.60547 0.726562,-0.8086 0.299478,-0.20312 0.636717,-0.35676 1.011719,-0.46093 0.276039,-0.0729 0.692705,-0.14323 1.25,-0.21094 1.135412,-0.13541 1.971348,-0.29687 2.507812,-0.48438 0.0052,-0.1927 0.0078,-0.31509 0.0078,-0.36718 -6e-6,-0.57291 -0.132819,-0.97656 -0.398438,-1.21094 -0.35938,-0.3177 -0.893234,-0.47656 -1.601562,-0.47656 -0.661462,0 -1.149743,0.11589 -1.464844,0.34765 -0.315106,0.23178 -0.548179,0.64194 -0.699219,1.23047l-1.375,-0.1875c0.125,-0.58853 0.330729,-1.06379 0.617188,-1.42578 0.286457,-0.36197 0.700519,-0.64062 1.242187,-0.83594 0.541664,-0.1953 1.169267,-0.29296 1.882813,-0.29297 0.708328,10e-6 1.283848,0.0833 1.726562,0.25 0.442702,0.16668 0.768223,0.37631 0.976563,0.62891 0.208326,0.25261 0.354159,0.57162 0.4375,0.95703 0.04687,0.23959 0.0703,0.67188 0.07031,1.29688l0,1.875c-7e-6,1.30729 0.02994,2.13408 0.08984,2.48048 0.05989,0.3463 0.178378,0.6784 0.355469,0.9961l-1.46875,0c-0.14584,-0.2917 -0.23959,-0.6328 -0.28125,-1.0235zm-0.117188,-3.14058c-0.510422,0.20833 -1.276046,0.38542 -2.296875,0.53125 -0.578128,0.0833 -0.986982,0.17708 -1.226562,0.28125 -0.239586,0.10417 -0.424482,0.25651 -0.554688,0.45703 -0.13021,0.20052 -0.195314,0.42318 -0.195312,0.66797 -2e-6,0.375 0.141925,0.6875 0.425781,0.93748 0.283852,0.25 0.699216,0.375 1.246094,0.375 0.541662,0 1.023433,-0.1185 1.445312,-0.3555 0.42187,-0.23693 0.731765,-0.56115 0.929688,-0.97261 0.151035,-0.3177 0.226556,-0.78645 0.226562,-1.40625z"/>
 <path d="m38.804687,1004.5785 -0.15625,-1.3203c0.307291,0.083 0.57552,0.125 0.804688,0.125 0.312498,0 0.562498,-0.052 0.75,-0.1563 0.187497,-0.1041 0.341143,-0.25 0.460937,-0.4375 0.08854,-0.1406 0.231768,-0.4896 0.429688,-1.0468 0.02604,-0.078 0.0677,-0.1928 0.125,-0.3438l-3.148438,-8.3125 1.515625,0 1.726563,4.80469c0.223955,0.60938 0.424475,1.25 0.601562,1.92188 0.161455,-0.64583 0.354163,-1.27604 0.578125,-1.89063l1.773438,-4.83594 1.40625,0 -3.15625,8.4375c-0.338546,0.9115 -0.601567,1.5391 -0.789063,1.8828 -0.250003,0.4636 -0.536461,0.8034 -0.859375,1.0195 -0.322919,0.2162 -0.708335,0.3243 -1.15625,0.3243 -0.270834,0 -0.572917,-0.057 -0.90625,-0.1719z"/>
 <path d="M52.546875,998.7113 54,998.89099c-0.229175,0.84896 -0.653653,1.50781 -1.273438,1.97661 -0.619797,0.4687 -1.411463,0.7031 -2.375,0.7031 -1.213544,0 -2.175783,-0.3737 -2.886718,-1.1211 -0.710939,-0.74741 -1.066407,-1.79559 -1.066407,-3.14455 0,-1.39582 0.359375,-2.47916 1.078125,-3.25 0.718748,-0.77082 1.651039,-1.15624 2.796875,-1.15625 1.10937,10e-6 2.015619,0.37762 2.71875,1.13282 0.703118,0.75521 1.05468,1.81771 1.054688,3.1875 -8e-6,0.0833 -0.0026,0.20833 -0.0078,0.375l-6.1875,0c0.05208,0.91146 0.309894,1.60937 0.773438,2.09375 0.463538,0.48433 1.041663,0.72653 1.734375,0.72653 0.51562,0 0.955724,-0.1354 1.320312,-0.4062 0.364578,-0.27085 0.65364,-0.70314 0.867188,-1.2969zm-4.617188,-2.27343 4.632813,0c-0.06251,-0.69791 -0.23959,-1.22135 -0.53125,-1.57032 -0.447922,-0.54166 -1.028651,-0.81249 -1.742188,-0.8125 -0.645837,10e-6 -1.188805,0.21616 -1.628906,0.64844 -0.440106,0.4323 -0.683596,1.01042 -0.730469,1.73438z"/>
 <path d="m55.757812,1001.3832 0,-8.2969 1.265625,0 0,1.25782c0.322915,-0.58854 0.621091,-0.97656 0.894532,-1.16407 0.273434,-0.18749 0.574215,-0.28124 0.902343,-0.28125 0.473954,10e-6 0.955725,0.15105 1.445313,0.45313l-0.484375,1.30469c-0.343755,-0.20312 -0.687504,-0.30468 -1.03125,-0.30469 -0.307295,10e-6 -0.583337,0.0924 -0.828125,0.27734 -0.244795,0.1849 -0.419274,0.44142 -0.523438,0.76953 -0.156252,0.50001 -0.234377,1.04688 -0.234375,1.64063l0,4.34377z"/>
 <path d="m65.171875,998.35974 1.40625,-0.1875c0.161456,0.79688 0.436195,1.3711 0.824219,1.72266 0.388017,0.3516 0.860673,0.5273 1.417968,0.5273 0.661454,0 1.220047,-0.2291 1.675782,-0.68746 0.455722,-0.45833 0.683587,-1.02604 0.683593,-1.70312 -6e-6,-0.64583 -0.210943,-1.17838 -0.632812,-1.59766 -0.421881,-0.41927 -0.958338,-0.6289 -1.609375,-0.62891 -0.265629,10e-6 -0.596358,0.0521 -0.992188,0.15625l0.15625,-1.23437c0.09375,0.0104 0.169268,0.0156 0.226563,0.0156 0.598954,10e-6 1.138016,-0.15624 1.617187,-0.46875 0.479161,-0.31249 0.718744,-0.79426 0.71875,-1.44531 -6e-6,-0.51561 -0.174485,-0.9427 -0.523437,-1.28125 -0.348964,-0.33853 -0.799484,-0.5078 -1.351563,-0.50781 -0.546878,10e-6 -1.002607,0.17188 -1.367187,0.51562 -0.364586,0.34376 -0.598961,0.85939 -0.703125,1.54688l-1.40625,-0.25c0.171874,-0.9427 0.562499,-1.67317 1.171875,-2.19141 0.609372,-0.51822 1.367184,-0.77733 2.273437,-0.77734 0.624996,10e-6 1.200516,0.13412 1.726563,0.40234 0.526035,0.26824 0.928379,0.63413 1.207031,1.09766 0.278639,0.46355 0.417961,0.95574 0.417969,1.47656 -8e-6,0.4948 -0.13282,0.94532 -0.398438,1.35156 -0.265631,0.40626 -0.65886,0.72918 -1.179687,0.96875 0.677077,0.15626 1.203118,0.48048 1.578125,0.97266 0.374992,0.49219 0.562492,1.10808 0.5625,1.84766 -8e-6,1 -0.364591,1.84765 -1.09375,2.54295 -0.729173,0.6953 -1.651047,1.043 -2.765625,1.043 -1.005212,0 -1.839846,-0.2995 -2.503906,-0.8984 -0.664064,-0.599 -1.04297,-1.37505 -1.136719,-2.32818z"/>
 </g>
 <rect style="fill:#fff;fill-opacity:0.2;fill-rule:nonzero;stroke:#000;stroke-width:2;stroke-linecap:round;stroke-linejoin:round;stroke-dashoffset:5.5" width="93.148956" height="23.377384" x="97" y="845.71887"/>
 <rect style="fill:#fff;fill-opacity:0.2;stroke:#000;stroke-width:2;stroke-linecap:round;stroke-linejoin:round;stroke-dashoffset:5.5" width="93.15" height="23.3774" x="330" y="845.71887"/>
 <rect style="fill:#fff;fill-opacity:0.2;stroke:#000;stroke-width:2;stroke-linecap:round;stroke-linejoin:round;stroke-dashoffset:5.5" width="93.15" height="23.3774" x="330" y="915.67346"/>
 <rect style="fill:#fff;fill-opacity:0.2;stroke:#000;stroke-width:2;stroke-linecap:round;stroke-linejoin:round;stroke-dashoffset:5.5" width="93.15" height="23.3774" x="97" y="985.62811"/>
 <rect style="fill:#fff;fill-opacity:0.2;stroke:#000;stroke-width:2;stroke-linecap:round;stroke-linejoin:round;stroke-dashoffset:5.5" width="93.15" height="23.3774" x="330" y="985.62811"/>
 <rect style="fill:#fff;fill-opacity:0.2;stroke:#000;stroke-width:2;stroke-linecap:round;stroke-linejoin:round;stroke-dashoffset:5.5" width="93.15" height="23.3774" x="97" y="915.67346"/>
 <g>
 <g>
 <path d="m114.57057,863.03845c-0.58203,-0.73437 -1.07422,-1.59375 -1.47656,-2.57812 -0.40235,-0.98438 -0.60352,-2.00391 -0.60352,-3.0586 0,-0.92968 0.15039,-1.8203 0.45118,-2.67187 0.35156,-0.98828 0.89452,-1.97265 1.6289,-2.95313l0.75586,0c-0.47266,0.81251 -0.78516,1.39259 -0.9375,1.74024 -0.23828,0.53907 -0.42578,1.10157 -0.5625,1.6875 -0.16797,0.73047 -0.25195,1.46485 -0.25195,2.20312 0,1.87891 0.58398,3.75586 1.75195,5.63086z"/>
 <path d="m116.26979,858.26306 1.10742,-0.0937c0.082,0.53907 0.27246,0.94434 0.57129,1.21582 0.29883,0.27149 0.65918,0.40723 1.08106,0.40723 0.50781,0 0.93749,-0.19141 1.28906,-0.57422 0.35156,-0.38281 0.52734,-0.89062 0.52734,-1.52344 0,-0.60156 -0.16895,-1.07617 -0.50683,-1.42383 -0.3379,-0.34765 -0.78028,-0.52148 -1.32715,-0.52148 -0.33985,0 -0.64649,0.0772 -0.91992,0.23144 -0.27344,0.15431 -0.48829,0.3545 -0.64453,0.60059l-0.99024,-0.12891 0.83203,-4.4121 4.27149,0 0,1.00781 -3.42774,0 -0.46289,2.30859c0.51562,-0.35937 1.05664,-0.53906 1.62305,-0.53906 0.74999,0 1.38281,0.25977 1.89844,0.7793 0.51561,0.51953 0.77343,1.1875 0.77343,2.0039 0,0.77735 -0.22657,1.44922 -0.67968,2.01563 -0.55079,0.69531 -1.30274,1.04297 -2.25586,1.04297 -0.78126,0 -1.41895,-0.21875 -1.91309,-0.65625 -0.49414,-0.4375 -0.77637,-1.01758 -0.84668,-1.74024z"/>
 <path d="m123.93385,863.03845 -0.75586,0c1.16797,-1.875 1.75195,-3.75195 1.75196,-5.63086 -1e-5,-0.73437 -0.084,-1.46288 -0.25196,-2.18554 -0.13281,-0.58594 -0.31836,-1.14844 -0.55664,-1.6875 -0.15234,-0.35156 -0.46679,-0.9375 -0.94336,-1.75782l0.75586,0c0.73438,0.98048 1.27734,1.96485 1.62891,2.95313 0.30078,0.85157 0.45117,1.74219 0.45117,2.67187 0,1.05469 -0.20215,2.07422 -0.60644,3.0586 -0.4043,0.98437 -0.89551,1.84375 -1.47364,2.57812z"/>
 <path d="m130.90651,860.51306 0,-8.58984 1.13672,0 0,8.58984z"/>
 <path d="m133.90651,860.51306 0,-6.22265 0.94922,0 0,0.88476c0.45703,-0.68359 1.11718,-1.02538 1.98047,-1.02539 0.37499,1e-5 0.71972,0.0674 1.03418,0.20215 0.31444,0.13477 0.5498,0.31153 0.70605,0.53027 0.15625,0.21876 0.26562,0.47852 0.32813,0.7793 0.0391,0.19532 0.0586,0.53711 0.0586,1.02539l0,3.82617 -1.05469,0 0,-3.78515c0,-0.42969 -0.041,-0.75098 -0.12304,-0.96387 -0.082,-0.21289 -0.22755,-0.38281 -0.43653,-0.50977 -0.20899,-0.12695 -0.4541,-0.19042 -0.73535,-0.19043 -0.44922,10e-6 -0.83692,0.14259 -1.16309,0.42774 -0.32617,0.28516 -0.48925,0.82617 -0.48925,1.62304l0,3.39844z"/>
 <path d="m140.16432,858.65564 1.04297,-0.16406c0.0586,0.41797 0.22168,0.73828 0.48926,0.96093 0.26757,0.22266 0.6416,0.33399 1.12207,0.33399 0.48437,0 0.84374,-0.0986 1.07812,-0.2959 0.23437,-0.19726 0.35156,-0.42871 0.35157,-0.69434 -1e-5,-0.23827 -0.10352,-0.42577 -0.31055,-0.5625 -0.14454,-0.0937 -0.50391,-0.21288 -1.07813,-0.35742 -0.77344,-0.19531 -1.30957,-0.36425 -1.60839,-0.50683 -0.29883,-0.14258 -0.5254,-0.33984 -0.67969,-0.5918 -0.1543,-0.25195 -0.23145,-0.53027 -0.23145,-0.83496 0,-0.27734 0.0635,-0.53418 0.19043,-0.77051 0.12696,-0.23632 0.29981,-0.43261 0.51856,-0.58887 0.16406,-0.12108 0.38769,-0.22362 0.6709,-0.30761 0.2832,-0.084 0.58691,-0.12597 0.91113,-0.12598 0.48828,1e-5 0.91699,0.0703 1.28613,0.21094 0.36914,0.14063 0.6416,0.33106 0.81738,0.57129 0.17578,0.24024 0.29687,0.56153 0.36329,0.96386l-1.03125,0.14063c-0.0469,-0.32031 -0.18263,-0.57031 -0.40723,-0.75 -0.22461,-0.17968 -0.542,-0.26953 -0.95215,-0.26953 -0.48438,0 -0.83008,0.0801 -1.03711,0.24023 -0.20703,0.16016 -0.31055,0.34766 -0.31055,0.5625 0,0.13673 0.043,0.25977 0.12891,0.36914 0.0859,0.11329 0.2207,0.20704 0.4043,0.28125 0.10546,0.0391 0.41601,0.12891 0.93164,0.26953 0.74609,0.19923 1.2666,0.36231 1.56152,0.48926 0.29492,0.12696 0.52636,0.31153 0.69434,0.55371 0.16796,0.24219 0.25195,0.54297 0.25195,0.90235 0,0.35156 -0.10254,0.68261 -0.30762,0.99316 -0.20508,0.31055 -0.50098,0.55078 -0.88769,0.7207 -0.38672,0.16993 -0.82422,0.25489 -1.3125,0.25489 -0.8086,0 -1.42481,-0.16797 -1.84863,-0.50391 -0.42383,-0.33594 -0.69434,-0.83398 -0.81153,-1.49414z"/>
 <path d="m148.88893,859.5697 0.15235,0.93164c-0.29688,0.0625 -0.56251,0.0937 -0.79688,0.0937 -0.38281,0 -0.67969,-0.0605 -0.89062,-0.18164 -0.21094,-0.12109 -0.35938,-0.28027 -0.44532,-0.47754 -0.0859,-0.19726 -0.1289,-0.6123 -0.1289,-1.24511l0,-3.58008 -0.77344,0 0,-0.82031 0.77344,0 0,-1.54102 1.04882,-0.63281 0,2.17383 1.06055,0 0,0.82031 -1.06055,0 0,3.63867c0,0.30078 0.0186,0.49414 0.0557,0.58008 0.0371,0.0859 0.0976,0.1543 0.18164,0.20508 0.084,0.0508 0.2041,0.0762 0.36035,0.0762 0.11719,0 0.27148,-0.0137 0.46289,-0.041z"/>
 <path d="m153.97487,859.74548c-0.39063,0.33204 -0.76661,0.56641 -1.12793,0.70313 -0.36133,0.13672 -0.74903,0.20508 -1.16309,0.20508 -0.68359,0 -1.20898,-0.167 -1.57617,-0.50098 -0.36719,-0.33398 -0.55078,-0.76074 -0.55078,-1.28027 0,-0.30469 0.0693,-0.58301 0.20801,-0.83496 0.13867,-0.25195 0.32031,-0.4541 0.54492,-0.60645 0.22461,-0.15234 0.47754,-0.26757 0.75879,-0.3457 0.20703,-0.0547 0.51953,-0.10742 0.9375,-0.15821 0.85156,-0.10155 1.47851,-0.22265 1.88086,-0.36328 0.004,-0.14452 0.006,-0.23632 0.006,-0.27539 -1e-5,-0.42968 -0.0996,-0.73241 -0.29883,-0.9082 -0.26954,-0.23828 -0.66993,-0.35742 -1.20117,-0.35742 -0.4961,0 -0.86231,0.0869 -1.09864,0.26074 -0.23633,0.17383 -0.41113,0.48145 -0.52441,0.92285l-1.03125,-0.14062c0.0937,-0.44141 0.24805,-0.79785 0.46289,-1.06934 0.21484,-0.27148 0.52539,-0.48046 0.93164,-0.62695 0.40625,-0.14648 0.87695,-0.21972 1.41211,-0.21973 0.53125,1e-5 0.96289,0.0625 1.29492,0.1875 0.33203,0.12501 0.57617,0.28223 0.73243,0.47168 0.15624,0.18946 0.26561,0.42872 0.32812,0.71777 0.0351,0.1797 0.0527,0.50391 0.0527,0.97266l0,1.40625c0,0.98047 0.0225,1.60059 0.0674,1.86035 0.0449,0.25977 0.13378,0.50879 0.2666,0.74707l-1.10156,0c-0.10938,-0.21875 -0.1797,-0.47461 -0.21094,-0.76758zm-0.0879,-2.35547c-0.38282,0.15626 -0.95704,0.28907 -1.72266,0.39844 -0.43359,0.0625 -0.74023,0.13282 -0.91992,0.21094 -0.17969,0.0781 -0.31836,0.19238 -0.41602,0.34277 -0.0977,0.1504 -0.14648,0.31739 -0.14648,0.50098 0,0.28125 0.10644,0.51563 0.31934,0.70312 0.21288,0.18751 0.52441,0.28126 0.93457,0.28125 0.40624,1e-5 0.76757,-0.0889 1.08398,-0.2666 0.3164,-0.17773 0.54882,-0.42089 0.69727,-0.72949 0.11327,-0.23828 0.16991,-0.58984 0.16992,-1.05469z"/>
 <path d="m156.59401,860.51306 0,-6.22265 0.94922,0 0,0.88476c0.45703,-0.68359 1.11718,-1.02538 1.98047,-1.02539 0.37499,1e-5 0.71972,0.0674 1.03418,0.20215 0.31444,0.13477 0.5498,0.31153 0.70605,0.53027 0.15625,0.21876 0.26562,0.47852 0.32813,0.7793 0.0391,0.19532 0.0586,0.53711 0.0586,1.02539l0,3.82617 -1.05469,0 0,-3.78515c0,-0.42969 -0.041,-0.75098 -0.12304,-0.96387 -0.082,-0.21289 -0.22755,-0.38281 -0.43653,-0.50977 -0.20899,-0.12695 -0.4541,-0.19042 -0.73535,-0.19043 -0.44922,10e-6 -0.83692,0.14259 -1.16309,0.42774 -0.32617,0.28516 -0.48925,0.82617 -0.48925,1.62304l0,3.39844z"/>
 <path d="m167.33424,858.23376 1.03711,0.13477c-0.11328,0.71485 -0.40332,1.27442 -0.87011,1.67871 -0.46681,0.4043 -1.04005,0.60645 -1.71973,0.60645 -0.85157,0 -1.53614,-0.27832 -2.05371,-0.83496 -0.51758,-0.55664 -0.77637,-1.35449 -0.77637,-2.39356 0,-0.67187 0.11133,-1.25976 0.33399,-1.76367 0.22265,-0.5039 0.56152,-0.88183 1.0166,-1.13379 0.45507,-0.25195 0.95019,-0.37792 1.48535,-0.37793 0.67578,1e-5 1.22851,0.1709 1.6582,0.5127 0.42968,0.3418 0.70507,0.82715 0.82617,1.45605l-1.02539,0.1582c-0.0977,-0.41796 -0.27051,-0.73241 -0.51855,-0.94336 -0.24805,-0.21093 -0.54786,-0.3164 -0.89942,-0.3164 -0.53125,0 -0.96289,0.19043 -1.29492,0.57129 -0.33203,0.38086 -0.49805,0.9834 -0.49804,1.80761 -10e-6,0.83594 0.16015,1.44337 0.48046,1.82227 0.32031,0.37891 0.73828,0.56836 1.25391,0.56836 0.41406,0 0.75976,-0.12695 1.03711,-0.38086 0.27734,-0.25391 0.45312,-0.64453 0.52734,-1.17188z"/>
 <path d="m173.53346,858.50916 1.08985,0.13476c-0.17188,0.63672 -0.49024,1.13086 -0.95508,1.48242 -0.46485,0.35157 -1.0586,0.52735 -1.78125,0.52735 -0.91016,0 -1.63184,-0.28028 -2.16504,-0.84082 -0.5332,-0.56055 -0.79981,-1.34668 -0.79981,-2.3584 0,-1.04687 0.26953,-1.85937 0.8086,-2.4375 0.53906,-0.57812 1.23828,-0.86718 2.09765,-0.86719 0.83203,1e-5 1.51172,0.28321 2.03907,0.84961 0.52733,0.56641 0.79101,1.36329 0.79101,2.39062 0,0.0625 -0.002,0.15626 -0.006,0.28125l-4.64062,0c0.0391,0.6836 0.23242,1.20704 0.58008,1.57032 0.34765,0.36328 0.78124,0.54492 1.30078,0.54492 0.38671,0 0.71679,-0.10156 0.99023,-0.30469 0.27343,-0.20312 0.49023,-0.52734 0.65039,-0.97265zm-3.46289,-1.70508 3.47461,0c-0.0469,-0.52344 -0.17969,-0.91601 -0.39844,-1.17774 -0.33594,-0.40624 -0.77148,-0.60937 -1.30664,-0.60937 -0.48437,0 -0.8916,0.16211 -1.22168,0.48633 -0.33008,0.32422 -0.51269,0.75781 -0.54785,1.30078z"/>
 </g>
 <g>
 <path d="m347.57056,863.03845c-0.58204,-0.73437 -1.07422,-1.59375 -1.47657,-2.57812 -0.40234,-0.98438 -0.60351,-2.00391 -0.60351,-3.0586 0,-0.92968 0.15039,-1.8203 0.45117,-2.67187 0.35156,-0.98828 0.89453,-1.97265 1.62891,-2.95313l0.75586,0c-0.47266,0.81251 -0.78516,1.39259 -0.9375,1.74024 -0.23829,0.53907 -0.42579,1.10157 -0.5625,1.6875 -0.16797,0.73047 -0.25196,1.46485 -0.25196,2.20312 0,1.87891 0.58398,3.75586 1.75196,5.63086z"/>
 <path d="m349.26978,858.26306 1.10742,-0.0937c0.082,0.53907 0.27246,0.94434 0.57129,1.21582 0.29882,0.27149 0.65917,0.40723 1.08105,0.40723 0.50781,0 0.9375,-0.19141 1.28906,-0.57422 0.35156,-0.38281 0.52734,-0.89062 0.52735,-1.52344 -1e-5,-0.60156 -0.16895,-1.07617 -0.50684,-1.42383 -0.33789,-0.34765 -0.78028,-0.52148 -1.32715,-0.52148 -0.33984,0 -0.64648,0.0772 -0.91992,0.23144 -0.27344,0.15431 -0.48828,0.3545 -0.64453,0.60059l-0.99023,-0.12891 0.83203,-4.4121 4.27148,0 0,1.00781 -3.42773,0 -0.46289,2.30859c0.51562,-0.35937 1.05663,-0.53906 1.62304,-0.53906 0.75,0 1.38281,0.25977 1.89844,0.7793 0.51562,0.51953 0.77343,1.1875 0.77344,2.0039 -10e-6,0.77735 -0.22657,1.44922 -0.67969,2.01563 -0.55079,0.69531 -1.30274,1.04297 -2.25586,1.04297 -0.78125,0 -1.41895,-0.21875 -1.91308,-0.65625 -0.49415,-0.4375 -0.77637,-1.01758 -0.84668,-1.74024z"/>
 <path d="m356.93384,863.03845 -0.75586,0c1.16797,-1.875 1.75195,-3.75195 1.75195,-5.63086 0,-0.73437 -0.084,-1.46288 -0.25195,-2.18554 -0.13282,-0.58594 -0.31836,-1.14844 -0.55664,-1.6875 -0.15235,-0.35156 -0.4668,-0.9375 -0.94336,-1.75782l0.75586,0c0.73437,0.98048 1.27734,1.96485 1.6289,2.95313 0.30078,0.85157 0.45117,1.74219 0.45118,2.67187 -10e-6,1.05469 -0.20216,2.07422 -0.60645,3.0586 -0.4043,0.98437 -0.89551,1.84375 -1.47363,2.57812z"/>
 <path d="m363.90649,860.51306 0,-8.58984 1.13672,0 0,8.58984z"/>
 <path d="m366.90649,860.51306 0,-6.22265 0.94922,0 0,0.88476c0.45703,-0.68359 1.11719,-1.02538 1.98047,-1.02539 0.375,1e-5 0.71972,0.0674 1.03418,0.20215 0.31445,0.13477 0.5498,0.31153 0.70606,0.53027 0.15624,0.21876 0.26562,0.47852 0.32812,0.7793 0.0391,0.19532 0.0586,0.53711 0.0586,1.02539l0,3.82617 -1.05468,0 0,-3.78515c-10e-6,-0.42969 -0.041,-0.75098 -0.12305,-0.96387 -0.082,-0.21289 -0.22754,-0.38281 -0.43652,-0.50977 -0.20899,-0.12695 -0.45411,-0.19042 -0.73535,-0.19043 -0.44923,10e-6 -0.83692,0.14259 -1.16309,0.42774 -0.32617,0.28516 -0.48926,0.82617 -0.48926,1.62304l0,3.39844z"/>
 <path d="m373.16431,858.65564 1.04297,-0.16406c0.0586,0.41797 0.22167,0.73828 0.48925,0.96093 0.26758,0.22266 0.6416,0.33399 1.12207,0.33399 0.48438,0 0.84375,-0.0986 1.07813,-0.2959 0.23437,-0.19726 0.35156,-0.42871 0.35156,-0.69434 0,-0.23827 -0.10352,-0.42577 -0.31055,-0.5625 -0.14453,-0.0937 -0.50391,-0.21288 -1.07812,-0.35742 -0.77344,-0.19531 -1.30957,-0.36425 -1.6084,-0.50683 -0.29883,-0.14258 -0.52539,-0.33984 -0.67969,-0.5918 -0.15429,-0.25195 -0.23144,-0.53027 -0.23144,-0.83496 0,-0.27734 0.0635,-0.53418 0.19043,-0.77051 0.12695,-0.23632 0.2998,-0.43261 0.51855,-0.58887 0.16406,-0.12108 0.3877,-0.22362 0.6709,-0.30761 0.2832,-0.084 0.58691,-0.12597 0.91113,-0.12598 0.48828,1e-5 0.91699,0.0703 1.28614,0.21094 0.36913,0.14063 0.64159,0.33106 0.81738,0.57129 0.17578,0.24024 0.29687,0.56153 0.36328,0.96386l-1.03125,0.14063c-0.0469,-0.32031 -0.18262,-0.57031 -0.40723,-0.75 -0.22461,-0.17968 -0.54199,-0.26953 -0.95214,-0.26953 -0.48438,0 -0.83008,0.0801 -1.03711,0.24023 -0.20704,0.16016 -0.31055,0.34766 -0.31055,0.5625 0,0.13673 0.043,0.25977 0.12891,0.36914 0.0859,0.11329 0.2207,0.20704 0.40429,0.28125 0.10547,0.0391 0.41602,0.12891 0.93164,0.26953 0.74609,0.19923 1.2666,0.36231 1.56153,0.48926 0.29491,0.12696 0.52636,0.31153 0.69433,0.55371 0.16797,0.24219 0.25195,0.54297 0.25196,0.90235 -1e-5,0.35156 -0.10255,0.68261 -0.30762,0.99316 -0.20508,0.31055 -0.50098,0.55078 -0.8877,0.7207 -0.38672,0.16993 -0.82422,0.25489 -1.3125,0.25489 -0.80859,0 -1.4248,-0.16797 -1.84863,-0.50391 -0.42383,-0.33594 -0.69434,-0.83398 -0.81152,-1.49414z"/>
 <path d="m381.88892,859.5697 0.15234,0.93164c-0.29688,0.0625 -0.5625,0.0937 -0.79688,0.0937 -0.38281,0 -0.67968,-0.0605 -0.89062,-0.18164 -0.21094,-0.12109 -0.35938,-0.28027 -0.44531,-0.47754 -0.0859,-0.19726 -0.12891,-0.6123 -0.12891,-1.24511l0,-3.58008 -0.77344,0 0,-0.82031 0.77344,0 0,-1.54102 1.04883,-0.63281 0,2.17383 1.06055,0 0,0.82031 -1.06055,0 0,3.63867c0,0.30078 0.0186,0.49414 0.0557,0.58008 0.0371,0.0859 0.0977,0.1543 0.18164,0.20508 0.084,0.0508 0.2041,0.0762 0.36036,0.0762 0.11718,0 0.27148,-0.0137 0.46289,-0.041z"/>
 <path d="m386.97485,859.74548c-0.39063,0.33204 -0.7666,0.56641 -1.12793,0.70313 -0.36133,0.13672 -0.74902,0.20508 -1.16308,0.20508 -0.6836,0 -1.20899,-0.167 -1.57617,-0.50098 -0.36719,-0.33398 -0.55079,-0.76074 -0.55079,-1.28027 0,-0.30469 0.0693,-0.58301 0.20801,-0.83496 0.13867,-0.25195 0.32031,-0.4541 0.54492,-0.60645 0.22461,-0.15234 0.47754,-0.26757 0.75879,-0.3457 0.20703,-0.0547 0.51953,-0.10742 0.9375,-0.15821 0.85156,-0.10155 1.47851,-0.22265 1.88086,-0.36328 0.004,-0.14452 0.006,-0.23632 0.006,-0.27539 0,-0.42968 -0.0996,-0.73241 -0.29883,-0.9082 -0.26953,-0.23828 -0.66992,-0.35742 -1.20117,-0.35742 -0.49609,0 -0.8623,0.0869 -1.09863,0.26074 -0.23633,0.17383 -0.41114,0.48145 -0.52441,0.92285l-1.03125,-0.14062c0.0937,-0.44141 0.24804,-0.79785 0.46289,-1.06934 0.21484,-0.27148 0.52539,-0.48046 0.93164,-0.62695 0.40624,-0.14648 0.87695,-0.21972 1.41211,-0.21973 0.53124,1e-5 0.96288,0.0625 1.29492,0.1875 0.33202,0.12501 0.57616,0.28223 0.73242,0.47168 0.15624,0.18946 0.26562,0.42872 0.32812,0.71777 0.0352,0.1797 0.0527,0.50391 0.0527,0.97266l0,1.40625c-10e-6,0.98047 0.0224,1.60059 0.0674,1.86035 0.0449,0.25977 0.13378,0.50879 0.2666,0.74707l-1.10156,0c-0.10938,-0.21875 -0.17969,-0.47461 -0.21094,-0.76758zm-0.0879,-2.35547c-0.38281,0.15626 -0.95703,0.28907 -1.72265,0.39844 -0.4336,0.0625 -0.74024,0.13282 -0.91993,0.21094 -0.17968,0.0781 -0.31836,0.19238 -0.41601,0.34277 -0.0977,0.1504 -0.14649,0.31739 -0.14649,0.50098 0,0.28125 0.10645,0.51563 0.31934,0.70312 0.21289,0.18751 0.52441,0.28126 0.93457,0.28125 0.40625,1e-5 0.76758,-0.0889 1.08399,-0.2666 0.3164,-0.17773 0.54882,-0.42089 0.69726,-0.72949 0.11328,-0.23828 0.16992,-0.58984 0.16992,-1.05469z"/>
 <path d="m389.59399,860.51306 0,-6.22265 0.94922,0 0,0.88476c0.45703,-0.68359 1.11719,-1.02538 1.98047,-1.02539 0.375,1e-5 0.71972,0.0674 1.03418,0.20215 0.31445,0.13477 0.5498,0.31153 0.70606,0.53027 0.15624,0.21876 0.26562,0.47852 0.32812,0.7793 0.0391,0.19532 0.0586,0.53711 0.0586,1.02539l0,3.82617 -1.05468,0 0,-3.78515c-10e-6,-0.42969 -0.041,-0.75098 -0.12305,-0.96387 -0.082,-0.21289 -0.22754,-0.38281 -0.43652,-0.50977 -0.20899,-0.12695 -0.45411,-0.19042 -0.73535,-0.19043 -0.44923,10e-6 -0.83692,0.14259 -1.16309,0.42774 -0.32617,0.28516 -0.48926,0.82617 -0.48926,1.62304l0,3.39844z"/>
 <path d="m400.33423,858.23376 1.03711,0.13477c-0.11329,0.71485 -0.40333,1.27442 -0.87012,1.67871 -0.4668,0.4043 -1.04004,0.60645 -1.71973,0.60645 -0.85156,0 -1.53613,-0.27832 -2.05371,-0.83496 -0.51758,-0.55664 -0.77636,-1.35449 -0.77636,-2.39356 0,-0.67187 0.11132,-1.25976 0.33398,-1.76367 0.22266,-0.5039 0.56152,-0.88183 1.0166,-1.13379 0.45508,-0.25195 0.95019,-0.37792 1.48535,-0.37793 0.67578,1e-5 1.22851,0.1709 1.65821,0.5127 0.42968,0.3418 0.70507,0.82715 0.82617,1.45605l-1.02539,0.1582c-0.0977,-0.41796 -0.27051,-0.73241 -0.51856,-0.94336 -0.24805,-0.21093 -0.54785,-0.3164 -0.89941,-0.3164 -0.53125,0 -0.96289,0.19043 -1.29492,0.57129 -0.33204,0.38086 -0.49805,0.9834 -0.49805,1.80761 0,0.83594 0.16015,1.44337 0.48047,1.82227 0.32031,0.37891 0.73828,0.56836 1.25391,0.56836 0.41405,0 0.75976,-0.12695 1.0371,-0.38086 0.27734,-0.25391 0.45312,-0.64453 0.52735,-1.17188z"/>
 <path d="m406.53345,858.50916 1.08984,0.13476c-0.17188,0.63672 -0.49024,1.13086 -0.95508,1.48242 -0.46485,0.35157 -1.05859,0.52735 -1.78125,0.52735 -0.91016,0 -1.63183,-0.28028 -2.16504,-0.84082 -0.5332,-0.56055 -0.7998,-1.34668 -0.7998,-2.3584 0,-1.04687 0.26953,-1.85937 0.80859,-2.4375 0.53906,-0.57812 1.23828,-0.86718 2.09766,-0.86719 0.83203,1e-5 1.51171,0.28321 2.03906,0.84961 0.52734,0.56641 0.79101,1.36329 0.79102,2.39062 -1e-5,0.0625 -0.002,0.15626 -0.006,0.28125l-4.64063,0c0.0391,0.6836 0.23242,1.20704 0.58008,1.57032 0.34765,0.36328 0.78125,0.54492 1.30078,0.54492 0.38672,0 0.7168,-0.10156 0.99024,-0.30469 0.27343,-0.20312 0.49023,-0.52734 0.65039,-0.97265zm-3.46289,-1.70508 3.47461,0c-0.0469,-0.52344 -0.1797,-0.91601 -0.39844,-1.17774 -0.33594,-0.40624 -0.77149,-0.60937 -1.30664,-0.60937 -0.48438,0 -0.89161,0.16211 -1.22168,0.48633 -0.33008,0.32422 -0.5127,0.75781 -0.54785,1.30078z"/>
 </g>
 <g>
 <path d="m114.57057,932.99304c-0.58203,-0.73437 -1.07422,-1.59375 -1.47656,-2.57812 -0.40235,-0.98438 -0.60352,-2.00391 -0.60352,-3.0586 0,-0.92968 0.15039,-1.8203 0.45118,-2.67187 0.35156,-0.98828 0.89452,-1.97265 1.6289,-2.95313l0.75586,0c-0.47266,0.81251 -0.78516,1.39259 -0.9375,1.74024 -0.23828,0.53907 -0.42578,1.10157 -0.5625,1.6875 -0.16797,0.73047 -0.25195,1.46485 -0.25195,2.20312 0,1.87891 0.58398,3.75586 1.75195,5.63086z"/>
 <path d="m119.65065,930.46765 0,-2.05664 -3.72656,0 0,-0.9668 3.91992,-5.5664 0.86133,0 0,5.5664 1.16015,0 0,0.9668 -1.16015,0 0,2.05664zm0,-3.02344 0,-3.87304 -2.68945,3.87304z"/>
 <path d="m123.93385,932.99304 -0.75586,0c1.16797,-1.875 1.75195,-3.75195 1.75196,-5.63086 -1e-5,-0.73437 -0.084,-1.46288 -0.25196,-2.18554 -0.13281,-0.58594 -0.31836,-1.14844 -0.55664,-1.6875 -0.15234,-0.35156 -0.46679,-0.9375 -0.94336,-1.75782l0.75586,0c0.73438,0.98048 1.27734,1.96485 1.62891,2.95313 0.30078,0.85157 0.45117,1.74219 0.45117,2.67187 0,1.05469 -0.20215,2.07422 -0.60644,3.0586 -0.4043,0.98437 -0.89551,1.84375 -1.47364,2.57812z"/>
 <path d="m130.90651,930.46765 0,-8.58984 1.13672,0 0,8.58984z"/>
 <path d="m133.90651,930.46765 0,-6.22265 0.94922,0 0,0.88476c0.45703,-0.68359 1.11718,-1.02538 1.98047,-1.02539 0.37499,10e-6 0.71972,0.0674 1.03418,0.20215 0.31444,0.13477 0.5498,0.31153 0.70605,0.53027 0.15625,0.21876 0.26562,0.47852 0.32813,0.7793 0.0391,0.19532 0.0586,0.53711 0.0586,1.02539l0,3.82617 -1.05469,0 0,-3.78515c0,-0.42969 -0.041,-0.75098 -0.12304,-0.96387 -0.082,-0.21289 -0.22755,-0.38281 -0.43653,-0.50977 -0.20899,-0.12695 -0.4541,-0.19042 -0.73535,-0.19043 -0.44922,1e-5 -0.83692,0.14259 -1.16309,0.42774 -0.32617,0.28516 -0.48925,0.82617 -0.48925,1.62304l0,3.39844z"/>
 <path d="m140.16432,928.61023 1.04297,-0.16406c0.0586,0.41797 0.22168,0.73828 0.48926,0.96093 0.26757,0.22266 0.6416,0.33399 1.12207,0.33399 0.48437,0 0.84374,-0.0986 1.07812,-0.2959 0.23437,-0.19726 0.35156,-0.42871 0.35157,-0.69434 -1e-5,-0.23827 -0.10352,-0.42577 -0.31055,-0.5625 -0.14454,-0.0937 -0.50391,-0.21288 -1.07813,-0.35742 -0.77344,-0.19531 -1.30957,-0.36425 -1.60839,-0.50683 -0.29883,-0.14258 -0.5254,-0.33984 -0.67969,-0.5918 -0.1543,-0.25195 -0.23145,-0.53027 -0.23145,-0.83496 0,-0.27734 0.0635,-0.53418 0.19043,-0.77051 0.12696,-0.23632 0.29981,-0.43261 0.51856,-0.58887 0.16406,-0.12108 0.38769,-0.22362 0.6709,-0.30761 0.2832,-0.084 0.58691,-0.12597 0.91113,-0.12598 0.48828,10e-6 0.91699,0.0703 1.28613,0.21094 0.36914,0.14063 0.6416,0.33106 0.81738,0.57129 0.17578,0.24024 0.29687,0.56153 0.36329,0.96386l-1.03125,0.14063c-0.0469,-0.32031 -0.18263,-0.57031 -0.40723,-0.75 -0.22461,-0.17968 -0.542,-0.26953 -0.95215,-0.26953 -0.48438,0 -0.83008,0.0801 -1.03711,0.24023 -0.20703,0.16016 -0.31055,0.34766 -0.31055,0.5625 0,0.13673 0.043,0.25977 0.12891,0.36914 0.0859,0.11329 0.2207,0.20704 0.4043,0.28125 0.10546,0.0391 0.41601,0.12891 0.93164,0.26953 0.74609,0.19923 1.2666,0.36231 1.56152,0.48926 0.29492,0.12696 0.52636,0.31153 0.69434,0.55371 0.16796,0.24219 0.25195,0.54297 0.25195,0.90235 0,0.35156 -0.10254,0.68261 -0.30762,0.99316 -0.20508,0.31055 -0.50098,0.55078 -0.88769,0.7207 -0.38672,0.16993 -0.82422,0.25489 -1.3125,0.25489 -0.8086,0 -1.42481,-0.16797 -1.84863,-0.50391 -0.42383,-0.33594 -0.69434,-0.83398 -0.81153,-1.49414z"/>
 <path d="m148.88893,929.52429 0.15235,0.93164c-0.29688,0.0625 -0.56251,0.0937 -0.79688,0.0937 -0.38281,0 -0.67969,-0.0605 -0.89062,-0.18164 -0.21094,-0.12109 -0.35938,-0.28027 -0.44532,-0.47754 -0.0859,-0.19726 -0.1289,-0.6123 -0.1289,-1.24511l0,-3.58008 -0.77344,0 0,-0.82031 0.77344,0 0,-1.54102 1.04882,-0.63281 0,2.17383 1.06055,0 0,0.82031 -1.06055,0 0,3.63867c0,0.30078 0.0186,0.49414 0.0557,0.58008 0.0371,0.0859 0.0976,0.1543 0.18164,0.20508 0.084,0.0508 0.2041,0.0762 0.36035,0.0762 0.11719,0 0.27148,-0.0137 0.46289,-0.041z"/>
 <path d="m153.97487,929.70007c-0.39063,0.33203 -0.76661,0.56641 -1.12793,0.70313 -0.36133,0.13672 -0.74903,0.20508 -1.16309,0.20508 -0.68359,0 -1.20898,-0.167 -1.57617,-0.50098 -0.36719,-0.33398 -0.55078,-0.76074 -0.55078,-1.28027 0,-0.30469 0.0693,-0.58301 0.20801,-0.83496 0.13867,-0.25195 0.32031,-0.4541 0.54492,-0.60645 0.22461,-0.15234 0.47754,-0.26757 0.75879,-0.3457 0.20703,-0.0547 0.51953,-0.10742 0.9375,-0.15821 0.85156,-0.10155 1.47851,-0.22265 1.88086,-0.36328 0.004,-0.14452 0.006,-0.23632 0.006,-0.27539 -1e-5,-0.42968 -0.0996,-0.73241 -0.29883,-0.9082 -0.26954,-0.23828 -0.66993,-0.35742 -1.20117,-0.35742 -0.4961,0 -0.86231,0.0869 -1.09864,0.26074 -0.23633,0.17383 -0.41113,0.48145 -0.52441,0.92285l-1.03125,-0.14062c0.0937,-0.44141 0.24805,-0.79785 0.46289,-1.06934 0.21484,-0.27148 0.52539,-0.48046 0.93164,-0.62695 0.40625,-0.14648 0.87695,-0.21972 1.41211,-0.21973 0.53125,10e-6 0.96289,0.0625 1.29492,0.1875 0.33203,0.12501 0.57617,0.28223 0.73243,0.47168 0.15624,0.18946 0.26561,0.42872 0.32812,0.71777 0.0351,0.1797 0.0527,0.50391 0.0527,0.97266l0,1.40625c0,0.98047 0.0225,1.60059 0.0674,1.86035 0.0449,0.25977 0.13378,0.50879 0.2666,0.74707l-1.10156,0c-0.10938,-0.21875 -0.1797,-0.47461 -0.21094,-0.76758zm-0.0879,-2.35547c-0.38282,0.15626 -0.95704,0.28907 -1.72266,0.39844 -0.43359,0.0625 -0.74023,0.13282 -0.91992,0.21094 -0.17969,0.0781 -0.31836,0.19238 -0.41602,0.34277 -0.0977,0.1504 -0.14648,0.31739 -0.14648,0.50098 0,0.28125 0.10644,0.51563 0.31934,0.70312 0.21288,0.18751 0.52441,0.28126 0.93457,0.28125 0.40624,10e-6 0.76757,-0.0889 1.08398,-0.2666 0.3164,-0.17773 0.54882,-0.42089 0.69727,-0.72949 0.11327,-0.23828 0.16991,-0.58984 0.16992,-1.05469z"/>
 <path d="m156.59401,930.46765 0,-6.22265 0.94922,0 0,0.88476c0.45703,-0.68359 1.11718,-1.02538 1.98047,-1.02539 0.37499,10e-6 0.71972,0.0674 1.03418,0.20215 0.31444,0.13477 0.5498,0.31153 0.70605,0.53027 0.15625,0.21876 0.26562,0.47852 0.32813,0.7793 0.0391,0.19532 0.0586,0.53711 0.0586,1.02539l0,3.82617 -1.05469,0 0,-3.78515c0,-0.42969 -0.041,-0.75098 -0.12304,-0.96387 -0.082,-0.21289 -0.22755,-0.38281 -0.43653,-0.50977 -0.20899,-0.12695 -0.4541,-0.19042 -0.73535,-0.19043 -0.44922,1e-5 -0.83692,0.14259 -1.16309,0.42774 -0.32617,0.28516 -0.48925,0.82617 -0.48925,1.62304l0,3.39844z"/>
 <path d="m167.33424,928.18835 1.03711,0.13477c-0.11328,0.71485 -0.40332,1.27442 -0.87011,1.67871 -0.46681,0.4043 -1.04005,0.60645 -1.71973,0.60645 -0.85157,0 -1.53614,-0.27832 -2.05371,-0.83496 -0.51758,-0.55664 -0.77637,-1.35449 -0.77637,-2.39356 0,-0.67187 0.11133,-1.25976 0.33399,-1.76367 0.22265,-0.5039 0.56152,-0.88183 1.0166,-1.13379 0.45507,-0.25195 0.95019,-0.37792 1.48535,-0.37793 0.67578,10e-6 1.22851,0.1709 1.6582,0.5127 0.42968,0.3418 0.70507,0.82715 0.82617,1.45605l-1.02539,0.1582c-0.0977,-0.41796 -0.27051,-0.73241 -0.51855,-0.94336 -0.24805,-0.21093 -0.54786,-0.3164 -0.89942,-0.3164 -0.53125,0 -0.96289,0.19043 -1.29492,0.57129 -0.33203,0.38086 -0.49805,0.9834 -0.49804,1.80761 -10e-6,0.83594 0.16015,1.44336 0.48046,1.82227 0.32031,0.37891 0.73828,0.56836 1.25391,0.56836 0.41406,0 0.75976,-0.12695 1.03711,-0.38086 0.27734,-0.25391 0.45312,-0.64453 0.52734,-1.17188z"/>
 <path d="m173.53346,928.46375 1.08985,0.13476c-0.17188,0.63672 -0.49024,1.13086 -0.95508,1.48242 -0.46485,0.35157 -1.0586,0.52735 -1.78125,0.52735 -0.91016,0 -1.63184,-0.28028 -2.16504,-0.84082 -0.5332,-0.56055 -0.79981,-1.34668 -0.79981,-2.3584 0,-1.04687 0.26953,-1.85937 0.8086,-2.4375 0.53906,-0.57812 1.23828,-0.86718 2.09765,-0.86719 0.83203,10e-6 1.51172,0.28321 2.03907,0.84961 0.52733,0.56641 0.79101,1.36328 0.79101,2.39062 0,0.0625 -0.002,0.15626 -0.006,0.28125l-4.64062,0c0.0391,0.6836 0.23242,1.20704 0.58008,1.57032 0.34765,0.36328 0.78124,0.54492 1.30078,0.54492 0.38671,0 0.71679,-0.10156 0.99023,-0.30469 0.27343,-0.20312 0.49023,-0.52734 0.65039,-0.97265zm-3.46289,-1.70508 3.47461,0c-0.0469,-0.52344 -0.17969,-0.91601 -0.39844,-1.17774 -0.33594,-0.40624 -0.77148,-0.60937 -1.30664,-0.60937 -0.48437,0 -0.8916,0.16211 -1.22168,0.48633 -0.33008,0.32422 -0.51269,0.75781 -0.54785,1.30078z"/>
 </g>
 <g>
 <path d="m347.57056,932.99304c-0.58204,-0.73437 -1.07422,-1.59375 -1.47657,-2.57812 -0.40234,-0.98438 -0.60351,-2.00391 -0.60351,-3.0586 0,-0.92968 0.15039,-1.8203 0.45117,-2.67187 0.35156,-0.98828 0.89453,-1.97265 1.62891,-2.95313l0.75586,0c-0.47266,0.81251 -0.78516,1.39259 -0.9375,1.74024 -0.23829,0.53907 -0.42579,1.10157 -0.5625,1.6875 -0.16797,0.73047 -0.25196,1.46485 -0.25196,2.20312 0,1.87891 0.58398,3.75586 1.75196,5.63086z"/>
 <path d="m352.65063,930.46765 0,-2.05664 -3.72656,0 0,-0.9668 3.91992,-5.5664 0.86133,0 0,5.5664 1.16016,0 0,0.9668 -1.16016,0 0,2.05664zm0,-3.02344 0,-3.87304 -2.68945,3.87304z"/>
 <path d="m356.93384,932.99304 -0.75586,0c1.16797,-1.875 1.75195,-3.75195 1.75195,-5.63086 0,-0.73437 -0.084,-1.46288 -0.25195,-2.18554 -0.13282,-0.58594 -0.31836,-1.14844 -0.55664,-1.6875 -0.15235,-0.35156 -0.4668,-0.9375 -0.94336,-1.75782l0.75586,0c0.73437,0.98048 1.27734,1.96485 1.6289,2.95313 0.30078,0.85157 0.45117,1.74219 0.45118,2.67187 -10e-6,1.05469 -0.20216,2.07422 -0.60645,3.0586 -0.4043,0.98437 -0.89551,1.84375 -1.47363,2.57812z"/>
 <path d="m363.90649,930.46765 0,-8.58984 1.13672,0 0,8.58984z"/>
 <path d="m366.90649,930.46765 0,-6.22265 0.94922,0 0,0.88476c0.45703,-0.68359 1.11719,-1.02538 1.98047,-1.02539 0.375,10e-6 0.71972,0.0674 1.03418,0.20215 0.31445,0.13477 0.5498,0.31153 0.70606,0.53027 0.15624,0.21876 0.26562,0.47852 0.32812,0.7793 0.0391,0.19532 0.0586,0.53711 0.0586,1.02539l0,3.82617 -1.05468,0 0,-3.78515c-10e-6,-0.42969 -0.041,-0.75098 -0.12305,-0.96387 -0.082,-0.21289 -0.22754,-0.38281 -0.43652,-0.50977 -0.20899,-0.12695 -0.45411,-0.19042 -0.73535,-0.19043 -0.44923,1e-5 -0.83692,0.14259 -1.16309,0.42774 -0.32617,0.28516 -0.48926,0.82617 -0.48926,1.62304l0,3.39844z"/>
 <path d="m373.16431,928.61023 1.04297,-0.16406c0.0586,0.41797 0.22167,0.73828 0.48925,0.96093 0.26758,0.22266 0.6416,0.33399 1.12207,0.33399 0.48438,0 0.84375,-0.0986 1.07813,-0.2959 0.23437,-0.19726 0.35156,-0.42871 0.35156,-0.69434 0,-0.23827 -0.10352,-0.42577 -0.31055,-0.5625 -0.14453,-0.0937 -0.50391,-0.21288 -1.07812,-0.35742 -0.77344,-0.19531 -1.30957,-0.36425 -1.6084,-0.50683 -0.29883,-0.14258 -0.52539,-0.33984 -0.67969,-0.5918 -0.15429,-0.25195 -0.23144,-0.53027 -0.23144,-0.83496 0,-0.27734 0.0635,-0.53418 0.19043,-0.77051 0.12695,-0.23632 0.2998,-0.43261 0.51855,-0.58887 0.16406,-0.12108 0.3877,-0.22362 0.6709,-0.30761 0.2832,-0.084 0.58691,-0.12597 0.91113,-0.12598 0.48828,10e-6 0.91699,0.0703 1.28614,0.21094 0.36913,0.14063 0.64159,0.33106 0.81738,0.57129 0.17578,0.24024 0.29687,0.56153 0.36328,0.96386l-1.03125,0.14063c-0.0469,-0.32031 -0.18262,-0.57031 -0.40723,-0.75 -0.22461,-0.17968 -0.54199,-0.26953 -0.95214,-0.26953 -0.48438,0 -0.83008,0.0801 -1.03711,0.24023 -0.20704,0.16016 -0.31055,0.34766 -0.31055,0.5625 0,0.13673 0.043,0.25977 0.12891,0.36914 0.0859,0.11329 0.2207,0.20704 0.40429,0.28125 0.10547,0.0391 0.41602,0.12891 0.93164,0.26953 0.74609,0.19923 1.2666,0.36231 1.56153,0.48926 0.29491,0.12696 0.52636,0.31153 0.69433,0.55371 0.16797,0.24219 0.25195,0.54297 0.25196,0.90235 -1e-5,0.35156 -0.10255,0.68261 -0.30762,0.99316 -0.20508,0.31055 -0.50098,0.55078 -0.8877,0.7207 -0.38672,0.16993 -0.82422,0.25489 -1.3125,0.25489 -0.80859,0 -1.4248,-0.16797 -1.84863,-0.50391 -0.42383,-0.33594 -0.69434,-0.83398 -0.81152,-1.49414z"/>
 <path d="m381.88892,929.52429 0.15234,0.93164c-0.29688,0.0625 -0.5625,0.0937 -0.79688,0.0937 -0.38281,0 -0.67968,-0.0605 -0.89062,-0.18164 -0.21094,-0.12109 -0.35938,-0.28027 -0.44531,-0.47754 -0.0859,-0.19726 -0.12891,-0.6123 -0.12891,-1.24511l0,-3.58008 -0.77344,0 0,-0.82031 0.77344,0 0,-1.54102 1.04883,-0.63281 0,2.17383 1.06055,0 0,0.82031 -1.06055,0 0,3.63867c0,0.30078 0.0186,0.49414 0.0557,0.58008 0.0371,0.0859 0.0977,0.1543 0.18164,0.20508 0.084,0.0508 0.2041,0.0762 0.36036,0.0762 0.11718,0 0.27148,-0.0137 0.46289,-0.041z"/>
 <path d="m386.97485,929.70007c-0.39063,0.33203 -0.7666,0.56641 -1.12793,0.70313 -0.36133,0.13672 -0.74902,0.20508 -1.16308,0.20508 -0.6836,0 -1.20899,-0.167 -1.57617,-0.50098 -0.36719,-0.33398 -0.55079,-0.76074 -0.55079,-1.28027 0,-0.30469 0.0693,-0.58301 0.20801,-0.83496 0.13867,-0.25195 0.32031,-0.4541 0.54492,-0.60645 0.22461,-0.15234 0.47754,-0.26757 0.75879,-0.3457 0.20703,-0.0547 0.51953,-0.10742 0.9375,-0.15821 0.85156,-0.10155 1.47851,-0.22265 1.88086,-0.36328 0.004,-0.14452 0.006,-0.23632 0.006,-0.27539 0,-0.42968 -0.0996,-0.73241 -0.29883,-0.9082 -0.26953,-0.23828 -0.66992,-0.35742 -1.20117,-0.35742 -0.49609,0 -0.8623,0.0869 -1.09863,0.26074 -0.23633,0.17383 -0.41114,0.48145 -0.52441,0.92285l-1.03125,-0.14062c0.0937,-0.44141 0.24804,-0.79785 0.46289,-1.06934 0.21484,-0.27148 0.52539,-0.48046 0.93164,-0.62695 0.40624,-0.14648 0.87695,-0.21972 1.41211,-0.21973 0.53124,10e-6 0.96288,0.0625 1.29492,0.1875 0.33202,0.12501 0.57616,0.28223 0.73242,0.47168 0.15624,0.18946 0.26562,0.42872 0.32812,0.71777 0.0352,0.1797 0.0527,0.50391 0.0527,0.97266l0,1.40625c-10e-6,0.98047 0.0224,1.60059 0.0674,1.86035 0.0449,0.25977 0.13378,0.50879 0.2666,0.74707l-1.10156,0c-0.10938,-0.21875 -0.17969,-0.47461 -0.21094,-0.76758zm-0.0879,-2.35547c-0.38281,0.15626 -0.95703,0.28907 -1.72265,0.39844 -0.4336,0.0625 -0.74024,0.13282 -0.91993,0.21094 -0.17968,0.0781 -0.31836,0.19238 -0.41601,0.34277 -0.0977,0.1504 -0.14649,0.31739 -0.14649,0.50098 0,0.28125 0.10645,0.51563 0.31934,0.70312 0.21289,0.18751 0.52441,0.28126 0.93457,0.28125 0.40625,10e-6 0.76758,-0.0889 1.08399,-0.2666 0.3164,-0.17773 0.54882,-0.42089 0.69726,-0.72949 0.11328,-0.23828 0.16992,-0.58984 0.16992,-1.05469z"/>
 <path d="m389.59399,930.46765 0,-6.22265 0.94922,0 0,0.88476c0.45703,-0.68359 1.11719,-1.02538 1.98047,-1.02539 0.375,10e-6 0.71972,0.0674 1.03418,0.20215 0.31445,0.13477 0.5498,0.31153 0.70606,0.53027 0.15624,0.21876 0.26562,0.47852 0.32812,0.7793 0.0391,0.19532 0.0586,0.53711 0.0586,1.02539l0,3.82617 -1.05468,0 0,-3.78515c-10e-6,-0.42969 -0.041,-0.75098 -0.12305,-0.96387 -0.082,-0.21289 -0.22754,-0.38281 -0.43652,-0.50977 -0.20899,-0.12695 -0.45411,-0.19042 -0.73535,-0.19043 -0.44923,1e-5 -0.83692,0.14259 -1.16309,0.42774 -0.32617,0.28516 -0.48926,0.82617 -0.48926,1.62304l0,3.39844z"/>
 <path d="m400.33423,928.18835 1.03711,0.13477c-0.11329,0.71485 -0.40333,1.27442 -0.87012,1.67871 -0.4668,0.4043 -1.04004,0.60645 -1.71973,0.60645 -0.85156,0 -1.53613,-0.27832 -2.05371,-0.83496 -0.51758,-0.55664 -0.77636,-1.35449 -0.77636,-2.39356 0,-0.67187 0.11132,-1.25976 0.33398,-1.76367 0.22266,-0.5039 0.56152,-0.88183 1.0166,-1.13379 0.45508,-0.25195 0.95019,-0.37792 1.48535,-0.37793 0.67578,10e-6 1.22851,0.1709 1.65821,0.5127 0.42968,0.3418 0.70507,0.82715 0.82617,1.45605l-1.02539,0.1582c-0.0977,-0.41796 -0.27051,-0.73241 -0.51856,-0.94336 -0.24805,-0.21093 -0.54785,-0.3164 -0.89941,-0.3164 -0.53125,0 -0.96289,0.19043 -1.29492,0.57129 -0.33204,0.38086 -0.49805,0.9834 -0.49805,1.80761 0,0.83594 0.16015,1.44336 0.48047,1.82227 0.32031,0.37891 0.73828,0.56836 1.25391,0.56836 0.41405,0 0.75976,-0.12695 1.0371,-0.38086 0.27734,-0.25391 0.45312,-0.64453 0.52735,-1.17188z"/>
 <path d="m406.53345,928.46375 1.08984,0.13476c-0.17188,0.63672 -0.49024,1.13086 -0.95508,1.48242 -0.46485,0.35157 -1.05859,0.52735 -1.78125,0.52735 -0.91016,0 -1.63183,-0.28028 -2.16504,-0.84082 -0.5332,-0.56055 -0.7998,-1.34668 -0.7998,-2.3584 0,-1.04687 0.26953,-1.85937 0.80859,-2.4375 0.53906,-0.57812 1.23828,-0.86718 2.09766,-0.86719 0.83203,10e-6 1.51171,0.28321 2.03906,0.84961 0.52734,0.56641 0.79101,1.36328 0.79102,2.39062 -1e-5,0.0625 -0.002,0.15626 -0.006,0.28125l-4.64063,0c0.0391,0.6836 0.23242,1.20704 0.58008,1.57032 0.34765,0.36328 0.78125,0.54492 1.30078,0.54492 0.38672,0 0.7168,-0.10156 0.99024,-0.30469 0.27343,-0.20312 0.49023,-0.52734 0.65039,-0.97265zm-3.46289,-1.70508 3.47461,0c-0.0469,-0.52344 -0.1797,-0.91601 -0.39844,-1.17774 -0.33594,-0.40624 -0.77149,-0.60937 -1.30664,-0.60937 -0.48438,0 -0.89161,0.16211 -1.22168,0.48633 -0.33008,0.32422 -0.5127,0.75781 -0.54785,1.30078z"/>
 </g>
 <g>
 <path d="m114.57057,1002.9477c-0.58203,-0.7344 -1.07422,-1.5938 -1.47656,-2.5781 -0.40235,-0.98441 -0.60352,-2.00394 -0.60352,-3.05863 0,-0.92968 0.15039,-1.8203 0.45118,-2.67187 0.35156,-0.98828 0.89452,-1.97265 1.6289,-2.95313l0.75586,0c-0.47266,0.81251 -0.78516,1.39259 -0.9375,1.74024 -0.23828,0.53907 -0.42578,1.10157 -0.5625,1.6875 -0.16797,0.73047 -0.25195,1.46485 -0.25195,2.20312 0,1.87891 0.58398,3.75587 1.75195,5.63087z"/>
 <path d="m116.27565,998.15472 1.05469,-0.14062c0.12109,0.59766 0.32714,1.02832 0.61816,1.29199 0.29101,0.26367 0.64551,0.39551 1.06348,0.39551 0.49609,0 0.91503,-0.17187 1.25683,-0.51563 0.3418,-0.34374 0.51269,-0.76953 0.5127,-1.27734 -1e-5,-0.48437 -0.15821,-0.88379 -0.47461,-1.19824 -0.31641,-0.31445 -0.71875,-0.47168 -1.20703,-0.47168 -0.19922,0 -0.44727,0.0391 -0.74414,0.11719l0.11719,-0.92579c0.0703,0.008 0.12695,0.0117 0.16992,0.0117 0.44921,10e-6 0.85351,-0.11718 1.21289,-0.35156 0.35937,-0.23437 0.53906,-0.5957 0.53906,-1.08398 0,-0.38672 -0.13086,-0.70703 -0.39258,-0.96094 -0.26172,-0.2539 -0.59961,-0.38085 -1.01367,-0.38086 -0.41016,10e-6 -0.75195,0.12891 -1.02539,0.38672 -0.27344,0.25782 -0.44922,0.64454 -0.52734,1.16015l-1.05469,-0.1875c0.1289,-0.70702 0.42187,-1.25487 0.87891,-1.64355 0.45702,-0.38866 1.02538,-0.583 1.70507,-0.58301 0.46875,10e-6 0.90039,0.1006 1.29493,0.30176 0.39452,0.20118 0.69628,0.47559 0.90527,0.82324 0.20898,0.34767 0.31347,0.71681 0.31348,1.10742 -1e-5,0.3711 -0.0996,0.70899 -0.29883,1.01368 -0.19923,0.30469 -0.49415,0.54688 -0.88477,0.72656 0.50781,0.11719 0.90234,0.36035 1.1836,0.72949 0.28124,0.36914 0.42186,0.83106 0.42187,1.38574 -1e-5,0.75 -0.27344,1.38575 -0.82031,1.90723 -0.54688,0.5215 -1.23829,0.7822 -2.07422,0.7822 -0.75391,0 -1.37989,-0.2246 -1.87793,-0.6738 -0.49805,-0.44922 -0.78223,-1.03125 -0.85254,-1.7461z"/>
 <path d="m123.93385,1002.9477 -0.75586,0c1.16797,-1.875 1.75195,-3.75196 1.75196,-5.63087 -1e-5,-0.73437 -0.084,-1.46288 -0.25196,-2.18554 -0.13281,-0.58594 -0.31836,-1.14843 -0.55664,-1.6875 -0.15234,-0.35156 -0.46679,-0.9375 -0.94336,-1.75782l0.75586,0c0.73438,0.98048 1.27734,1.96485 1.62891,2.95313 0.30078,0.85157 0.45117,1.74219 0.45117,2.67187 0,1.05469 -0.20215,2.07422 -0.60644,3.05863 -0.4043,0.9843 -0.89551,1.8437 -1.47364,2.5781z"/>
 <path d="m130.90651,1000.4223 0,-8.58984 1.13672,0 0,8.58984z"/>
 <path d="m133.90651,1000.4223 0,-6.22265 0.94922,0 0,0.88476c0.45703,-0.68359 1.11718,-1.02538 1.98047,-1.02539 0.37499,10e-6 0.71972,0.0674 1.03418,0.20215 0.31444,0.13477 0.5498,0.31153 0.70605,0.53027 0.15625,0.21876 0.26562,0.47852 0.32813,0.7793 0.0391,0.19532 0.0586,0.53711 0.0586,1.02539l0,3.82617 -1.05469,0 0,-3.78515c0,-0.42969 -0.041,-0.75098 -0.12304,-0.96387 -0.082,-0.21289 -0.22755,-0.38281 -0.43653,-0.50977 -0.20899,-0.12694 -0.4541,-0.19042 -0.73535,-0.19043 -0.44922,10e-6 -0.83692,0.14259 -1.16309,0.42774 -0.32617,0.28516 -0.48925,0.82617 -0.48925,1.62304l0,3.39844z"/>
 <path d="m140.16432,998.56488 1.04297,-0.16406c0.0586,0.41797 0.22168,0.73828 0.48926,0.96094 0.26757,0.22265 0.6416,0.33398 1.12207,0.33398 0.48437,0 0.84374,-0.0986 1.07812,-0.2959 0.23437,-0.19726 0.35156,-0.42871 0.35157,-0.69433 -1e-5,-0.23828 -0.10352,-0.42578 -0.31055,-0.5625 -0.14454,-0.0937 -0.50391,-0.21289 -1.07813,-0.35743 -0.77344,-0.19531 -1.30957,-0.36425 -1.60839,-0.50683 -0.29883,-0.14258 -0.5254,-0.33984 -0.67969,-0.5918 -0.1543,-0.25195 -0.23145,-0.53027 -0.23145,-0.83496 0,-0.27734 0.0635,-0.53417 0.19043,-0.77051 0.12696,-0.23632 0.29981,-0.43261 0.51856,-0.58887 0.16406,-0.12108 0.38769,-0.22362 0.6709,-0.30761 0.2832,-0.084 0.58691,-0.12597 0.91113,-0.12598 0.48828,10e-6 0.91699,0.0703 1.28613,0.21094 0.36914,0.14063 0.6416,0.33106 0.81738,0.57129 0.17578,0.24024 0.29687,0.56153 0.36329,0.96386l-1.03125,0.14063c-0.0469,-0.32031 -0.18263,-0.57031 -0.40723,-0.75 -0.22461,-0.17968 -0.542,-0.26953 -0.95215,-0.26953 -0.48438,0 -0.83008,0.0801 -1.03711,0.24023 -0.20703,0.16016 -0.31055,0.34766 -0.31055,0.5625 0,0.13673 0.043,0.25977 0.12891,0.36914 0.0859,0.11329 0.2207,0.20704 0.4043,0.28125 0.10546,0.0391 0.41601,0.12891 0.93164,0.26953 0.74609,0.19923 1.2666,0.36231 1.56152,0.48926 0.29492,0.12696 0.52636,0.31153 0.69434,0.55371 0.16796,0.24219 0.25195,0.54297 0.25195,0.90235 0,0.35156 -0.10254,0.68262 -0.30762,0.99316 -0.20508,0.31055 -0.50098,0.55076 -0.88769,0.72066 -0.38672,0.17 -0.82422,0.2549 -1.3125,0.2549 -0.8086,0 -1.42481,-0.1679 -1.84863,-0.5039 -0.42383,-0.33592 -0.69434,-0.83396 -0.81153,-1.49412z"/>
 <path d="m148.88893,999.47894 0.15235,0.93166c-0.29688,0.062 -0.56251,0.094 -0.79688,0.094 -0.38281,0 -0.67969,-0.06 -0.89062,-0.1816 -0.21094,-0.1211 -0.35938,-0.2803 -0.44532,-0.47755 -0.0859,-0.19726 -0.1289,-0.6123 -0.1289,-1.24511l0,-3.58008 -0.77344,0 0,-0.82031 0.77344,0 0,-1.54102 1.04882,-0.63281 0,2.17383 1.06055,0 0,0.82031 -1.06055,0 0,3.63867c0,0.30078 0.0186,0.49414 0.0557,0.58008 0.0371,0.0859 0.0976,0.1543 0.18164,0.20508 0.084,0.0508 0.2041,0.0762 0.36035,0.0762 0.11719,0 0.27148,-0.0137 0.46289,-0.041z"/>
 <path d="m153.97487,999.65472c-0.39063,0.33204 -0.76661,0.56638 -1.12793,0.70308 -0.36133,0.1368 -0.74903,0.2051 -1.16309,0.2051 -0.68359,0 -1.20898,-0.167 -1.57617,-0.5009 -0.36719,-0.33403 -0.55078,-0.76079 -0.55078,-1.28032 0,-0.30469 0.0693,-0.58301 0.20801,-0.83496 0.13867,-0.25195 0.32031,-0.4541 0.54492,-0.60645 0.22461,-0.15234 0.47754,-0.26757 0.75879,-0.3457 0.20703,-0.0547 0.51953,-0.10742 0.9375,-0.15821 0.85156,-0.10155 1.47851,-0.22265 1.88086,-0.36328 0.004,-0.14452 0.006,-0.23632 0.006,-0.27539 -1e-5,-0.42968 -0.0996,-0.73241 -0.29883,-0.9082 -0.26954,-0.23828 -0.66993,-0.35742 -1.20117,-0.35742 -0.4961,0 -0.86231,0.0869 -1.09864,0.26074 -0.23633,0.17383 -0.41113,0.48145 -0.52441,0.92285l-1.03125,-0.14062c0.0937,-0.4414 0.24805,-0.79785 0.46289,-1.06934 0.21484,-0.27148 0.52539,-0.48046 0.93164,-0.62695 0.40625,-0.14648 0.87695,-0.21972 1.41211,-0.21973 0.53125,10e-6 0.96289,0.0625 1.29492,0.1875 0.33203,0.12501 0.57617,0.28223 0.73243,0.47168 0.15624,0.18946 0.26561,0.42872 0.32812,0.71777 0.0351,0.1797 0.0527,0.50391 0.0527,0.97266l0,1.40625c0,0.98047 0.0225,1.60059 0.0674,1.86035 0.0449,0.25977 0.13378,0.50877 0.2666,0.74707l-1.10156,0c-0.10938,-0.2187 -0.1797,-0.47461 -0.21094,-0.76758zm-0.0879,-2.35546c-0.38282,0.15625 -0.95704,0.28906 -1.72266,0.39843 -0.43359,0.0625 -0.74023,0.13282 -0.91992,0.21094 -0.17969,0.0781 -0.31836,0.19239 -0.41602,0.34277 -0.0977,0.1504 -0.14648,0.31739 -0.14648,0.50098 0,0.28125 0.10644,0.51563 0.31934,0.70313 0.21288,0.1875 0.52441,0.28125 0.93457,0.28125 0.40624,0 0.76757,-0.0889 1.08398,-0.26661 0.3164,-0.17773 0.54882,-0.42089 0.69727,-0.72949 0.11327,-0.23828 0.16991,-0.58984 0.16992,-1.05469z"/>
 <path d="m156.59401,1000.4223 0,-6.22265 0.94922,0 0,0.88476c0.45703,-0.68359 1.11718,-1.02538 1.98047,-1.02539 0.37499,10e-6 0.71972,0.0674 1.03418,0.20215 0.31444,0.13477 0.5498,0.31153 0.70605,0.53027 0.15625,0.21876 0.26562,0.47852 0.32813,0.7793 0.0391,0.19532 0.0586,0.53711 0.0586,1.02539l0,3.82617 -1.05469,0 0,-3.78515c0,-0.42969 -0.041,-0.75098 -0.12304,-0.96387 -0.082,-0.21289 -0.22755,-0.38281 -0.43653,-0.50977 -0.20899,-0.12694 -0.4541,-0.19042 -0.73535,-0.19043 -0.44922,10e-6 -0.83692,0.14259 -1.16309,0.42774 -0.32617,0.28516 -0.48925,0.82617 -0.48925,1.62304l0,3.39844z"/>
 <path d="m167.33424,998.14301 1.03711,0.13476c-0.11328,0.71485 -0.40332,1.27442 -0.87011,1.67871 -0.46681,0.40432 -1.04005,0.60642 -1.71973,0.60642 -0.85157,0 -1.53614,-0.2783 -2.05371,-0.83493 -0.51758,-0.55664 -0.77637,-1.35449 -0.77637,-2.39356 0,-0.67187 0.11133,-1.25976 0.33399,-1.76367 0.22265,-0.5039 0.56152,-0.88183 1.0166,-1.13379 0.45507,-0.25195 0.95019,-0.37792 1.48535,-0.37793 0.67578,10e-6 1.22851,0.17091 1.6582,0.5127 0.42968,0.3418 0.70507,0.82715 0.82617,1.45605l-1.02539,0.1582c-0.0977,-0.41796 -0.27051,-0.73241 -0.51855,-0.94336 -0.24805,-0.21093 -0.54786,-0.3164 -0.89942,-0.3164 -0.53125,0 -0.96289,0.19043 -1.29492,0.57129 -0.33203,0.38086 -0.49805,0.9834 -0.49804,1.80761 -10e-6,0.83594 0.16015,1.44337 0.48046,1.82227 0.32031,0.37891 0.73828,0.56836 1.25391,0.56836 0.41406,0 0.75976,-0.12695 1.03711,-0.38086 0.27734,-0.2539 0.45312,-0.64453 0.52734,-1.17187z"/>
 <path d="m173.53346,998.4184 1.08985,0.13476c-0.17188,0.63672 -0.49024,1.13086 -0.95508,1.48244 -0.46485,0.3515 -1.0586,0.5273 -1.78125,0.5273 -0.91016,0 -1.63184,-0.2802 -2.16504,-0.84079 -0.5332,-0.56055 -0.79981,-1.34668 -0.79981,-2.3584 0,-1.04687 0.26953,-1.85937 0.8086,-2.4375 0.53906,-0.57812 1.23828,-0.86718 2.09765,-0.86719 0.83203,10e-6 1.51172,0.28321 2.03907,0.84961 0.52733,0.56641 0.79101,1.36329 0.79101,2.39063 0,0.0625 -0.002,0.15625 -0.006,0.28125l-4.64062,0c0.0391,0.68359 0.23242,1.20703 0.58008,1.57031 0.34765,0.36328 0.78124,0.54492 1.30078,0.54492 0.38671,0 0.71679,-0.10156 0.99023,-0.30469 0.27343,-0.20312 0.49023,-0.52734 0.65039,-0.97265zm-3.46289,-1.70508 3.47461,0c-0.0469,-0.52344 -0.17969,-0.91601 -0.39844,-1.17774 -0.33594,-0.40624 -0.77148,-0.60937 -1.30664,-0.60937 -0.48437,0 -0.8916,0.16211 -1.22168,0.48633 -0.33008,0.32422 -0.51269,0.75781 -0.54785,1.30078z"/>
 </g>
 <g>
 <path d="m347.57056,1002.9477c-0.58204,-0.7344 -1.07422,-1.5938 -1.47657,-2.5781 -0.40234,-0.98441 -0.60351,-2.00394 -0.60351,-3.05863 0,-0.92968 0.15039,-1.8203 0.45117,-2.67187 0.35156,-0.98828 0.89453,-1.97265 1.62891,-2.95313l0.75586,0c-0.47266,0.81251 -0.78516,1.39259 -0.9375,1.74024 -0.23829,0.53907 -0.42579,1.10157 -0.5625,1.6875 -0.16797,0.73047 -0.25196,1.46485 -0.25196,2.20312 0,1.87891 0.58398,3.75587 1.75196,5.63087z"/>
 <path d="m349.27563,998.15472 1.05469,-0.14062c0.12109,0.59766 0.32715,1.02832 0.61817,1.29199 0.29101,0.26367 0.6455,0.39551 1.06347,0.39551 0.49609,0 0.91504,-0.17187 1.25684,-0.51563 0.34179,-0.34374 0.51269,-0.76953 0.51269,-1.27734 0,-0.48437 -0.1582,-0.88379 -0.47461,-1.19824 -0.31641,-0.31445 -0.71875,-0.47168 -1.20703,-0.47168 -0.19922,0 -0.44726,0.0391 -0.74414,0.11719l0.11719,-0.92579c0.0703,0.008 0.12695,0.0117 0.16992,0.0117 0.44922,10e-6 0.85351,-0.11718 1.21289,-0.35156 0.35937,-0.23437 0.53906,-0.5957 0.53907,-1.08398 -1e-5,-0.38672 -0.13087,-0.70703 -0.39258,-0.96094 -0.26173,-0.2539 -0.59962,-0.38085 -1.01367,-0.38086 -0.41016,10e-6 -0.75196,0.12891 -1.0254,0.38672 -0.27343,0.25782 -0.44922,0.64454 -0.52734,1.16015l-1.05469,-0.1875c0.12891,-0.70702 0.42188,-1.25487 0.87891,-1.64355 0.45703,-0.38866 1.02539,-0.583 1.70508,-0.58301 0.46874,10e-6 0.90038,0.1006 1.29492,0.30176 0.39453,0.20118 0.69628,0.47559 0.90527,0.82324 0.20898,0.34767 0.31347,0.71681 0.31348,1.10742 -1e-5,0.3711 -0.0996,0.70899 -0.29883,1.01368 -0.19922,0.30469 -0.49414,0.54688 -0.88476,0.72656 0.5078,0.11719 0.90233,0.36035 1.18359,0.72949 0.28124,0.36914 0.42187,0.83106 0.42187,1.38574 0,0.75 -0.27344,1.38575 -0.82031,1.90723 -0.54688,0.5215 -1.23828,0.7822 -2.07422,0.7822 -0.75391,0 -1.37988,-0.2246 -1.87793,-0.6738 -0.49804,-0.44922 -0.78222,-1.03125 -0.85254,-1.7461z"/>
 <path d="m356.93384,1002.9477 -0.75586,0c1.16797,-1.875 1.75195,-3.75196 1.75195,-5.63087 0,-0.73437 -0.084,-1.46288 -0.25195,-2.18554 -0.13282,-0.58594 -0.31836,-1.14843 -0.55664,-1.6875 -0.15235,-0.35156 -0.4668,-0.9375 -0.94336,-1.75782l0.75586,0c0.73437,0.98048 1.27734,1.96485 1.6289,2.95313 0.30078,0.85157 0.45117,1.74219 0.45118,2.67187 -10e-6,1.05469 -0.20216,2.07422 -0.60645,3.05863 -0.4043,0.9843 -0.89551,1.8437 -1.47363,2.5781z"/>
 <path d="m363.90649,1000.4223 0,-8.58984 1.13672,0 0,8.58984z"/>
 <path d="m366.90649,1000.4223 0,-6.22265 0.94922,0 0,0.88476c0.45703,-0.68359 1.11719,-1.02538 1.98047,-1.02539 0.375,10e-6 0.71972,0.0674 1.03418,0.20215 0.31445,0.13477 0.5498,0.31153 0.70606,0.53027 0.15624,0.21876 0.26562,0.47852 0.32812,0.7793 0.0391,0.19532 0.0586,0.53711 0.0586,1.02539l0,3.82617 -1.05468,0 0,-3.78515c-10e-6,-0.42969 -0.041,-0.75098 -0.12305,-0.96387 -0.082,-0.21289 -0.22754,-0.38281 -0.43652,-0.50977 -0.20899,-0.12694 -0.45411,-0.19042 -0.73535,-0.19043 -0.44923,10e-6 -0.83692,0.14259 -1.16309,0.42774 -0.32617,0.28516 -0.48926,0.82617 -0.48926,1.62304l0,3.39844z"/>
 <path d="m373.16431,998.56488 1.04297,-0.16406c0.0586,0.41797 0.22167,0.73828 0.48925,0.96094 0.26758,0.22265 0.6416,0.33398 1.12207,0.33398 0.48438,0 0.84375,-0.0986 1.07813,-0.2959 0.23437,-0.19726 0.35156,-0.42871 0.35156,-0.69433 0,-0.23828 -0.10352,-0.42578 -0.31055,-0.5625 -0.14453,-0.0937 -0.50391,-0.21289 -1.07812,-0.35743 -0.77344,-0.19531 -1.30957,-0.36425 -1.6084,-0.50683 -0.29883,-0.14258 -0.52539,-0.33984 -0.67969,-0.5918 -0.15429,-0.25195 -0.23144,-0.53027 -0.23144,-0.83496 0,-0.27734 0.0635,-0.53417 0.19043,-0.77051 0.12695,-0.23632 0.2998,-0.43261 0.51855,-0.58887 0.16406,-0.12108 0.3877,-0.22362 0.6709,-0.30761 0.2832,-0.084 0.58691,-0.12597 0.91113,-0.12598 0.48828,10e-6 0.91699,0.0703 1.28614,0.21094 0.36913,0.14063 0.64159,0.33106 0.81738,0.57129 0.17578,0.24024 0.29687,0.56153 0.36328,0.96386l-1.03125,0.14063c-0.0469,-0.32031 -0.18262,-0.57031 -0.40723,-0.75 -0.22461,-0.17968 -0.54199,-0.26953 -0.95214,-0.26953 -0.48438,0 -0.83008,0.0801 -1.03711,0.24023 -0.20704,0.16016 -0.31055,0.34766 -0.31055,0.5625 0,0.13673 0.043,0.25977 0.12891,0.36914 0.0859,0.11329 0.2207,0.20704 0.40429,0.28125 0.10547,0.0391 0.41602,0.12891 0.93164,0.26953 0.74609,0.19923 1.2666,0.36231 1.56153,0.48926 0.29491,0.12696 0.52636,0.31153 0.69433,0.55371 0.16797,0.24219 0.25195,0.54297 0.25196,0.90235 -1e-5,0.35156 -0.10255,0.68262 -0.30762,0.99316 -0.20508,0.31055 -0.50098,0.55076 -0.8877,0.72066 -0.38672,0.17 -0.82422,0.2549 -1.3125,0.2549 -0.80859,0 -1.4248,-0.1679 -1.84863,-0.5039 -0.42383,-0.33592 -0.69434,-0.83396 -0.81152,-1.49412z"/>
 <path d="m381.88892,999.47894 0.15234,0.93166c-0.29688,0.062 -0.5625,0.094 -0.79688,0.094 -0.38281,0 -0.67968,-0.06 -0.89062,-0.1816 -0.21094,-0.1211 -0.35938,-0.2803 -0.44531,-0.47755 -0.0859,-0.19726 -0.12891,-0.6123 -0.12891,-1.24511l0,-3.58008 -0.77344,0 0,-0.82031 0.77344,0 0,-1.54102 1.04883,-0.63281 0,2.17383 1.06055,0 0,0.82031 -1.06055,0 0,3.63867c0,0.30078 0.0186,0.49414 0.0557,0.58008 0.0371,0.0859 0.0977,0.1543 0.18164,0.20508 0.084,0.0508 0.2041,0.0762 0.36036,0.0762 0.11718,0 0.27148,-0.0137 0.46289,-0.041z"/>
 <path d="m386.97485,999.65472c-0.39063,0.33204 -0.7666,0.56638 -1.12793,0.70308 -0.36133,0.1368 -0.74902,0.2051 -1.16308,0.2051 -0.6836,0 -1.20899,-0.167 -1.57617,-0.5009 -0.36719,-0.33403 -0.55079,-0.76079 -0.55079,-1.28032 0,-0.30469 0.0693,-0.58301 0.20801,-0.83496 0.13867,-0.25195 0.32031,-0.4541 0.54492,-0.60645 0.22461,-0.15234 0.47754,-0.26757 0.75879,-0.3457 0.20703,-0.0547 0.51953,-0.10742 0.9375,-0.15821 0.85156,-0.10155 1.47851,-0.22265 1.88086,-0.36328 0.004,-0.14452 0.006,-0.23632 0.006,-0.27539 0,-0.42968 -0.0996,-0.73241 -0.29883,-0.9082 -0.26953,-0.23828 -0.66992,-0.35742 -1.20117,-0.35742 -0.49609,0 -0.8623,0.0869 -1.09863,0.26074 -0.23633,0.17383 -0.41114,0.48145 -0.52441,0.92285l-1.03125,-0.14062c0.0937,-0.4414 0.24804,-0.79785 0.46289,-1.06934 0.21484,-0.27148 0.52539,-0.48046 0.93164,-0.62695 0.40624,-0.14648 0.87695,-0.21972 1.41211,-0.21973 0.53124,10e-6 0.96288,0.0625 1.29492,0.1875 0.33202,0.12501 0.57616,0.28223 0.73242,0.47168 0.15624,0.18946 0.26562,0.42872 0.32812,0.71777 0.0352,0.1797 0.0527,0.50391 0.0527,0.97266l0,1.40625c-10e-6,0.98047 0.0224,1.60059 0.0674,1.86035 0.0449,0.25977 0.13378,0.50877 0.2666,0.74707l-1.10156,0c-0.10938,-0.2187 -0.17969,-0.47461 -0.21094,-0.76758zm-0.0879,-2.35546c-0.38281,0.15625 -0.95703,0.28906 -1.72265,0.39843 -0.4336,0.0625 -0.74024,0.13282 -0.91993,0.21094 -0.17968,0.0781 -0.31836,0.19239 -0.41601,0.34277 -0.0977,0.1504 -0.14649,0.31739 -0.14649,0.50098 0,0.28125 0.10645,0.51563 0.31934,0.70313 0.21289,0.1875 0.52441,0.28125 0.93457,0.28125 0.40625,0 0.76758,-0.0889 1.08399,-0.26661 0.3164,-0.17773 0.54882,-0.42089 0.69726,-0.72949 0.11328,-0.23828 0.16992,-0.58984 0.16992,-1.05469z"/>
 <path d="m389.59399,1000.4223 0,-6.22265 0.94922,0 0,0.88476c0.45703,-0.68359 1.11719,-1.02538 1.98047,-1.02539 0.375,10e-6 0.71972,0.0674 1.03418,0.20215 0.31445,0.13477 0.5498,0.31153 0.70606,0.53027 0.15624,0.21876 0.26562,0.47852 0.32812,0.7793 0.0391,0.19532 0.0586,0.53711 0.0586,1.02539l0,3.82617 -1.05468,0 0,-3.78515c-10e-6,-0.42969 -0.041,-0.75098 -0.12305,-0.96387 -0.082,-0.21289 -0.22754,-0.38281 -0.43652,-0.50977 -0.20899,-0.12694 -0.45411,-0.19042 -0.73535,-0.19043 -0.44923,10e-6 -0.83692,0.14259 -1.16309,0.42774 -0.32617,0.28516 -0.48926,0.82617 -0.48926,1.62304l0,3.39844z"/>
 <path d="m400.33423,998.14301 1.03711,0.13476c-0.11329,0.71485 -0.40333,1.27442 -0.87012,1.67871 -0.4668,0.40432 -1.04004,0.60642 -1.71973,0.60642 -0.85156,0 -1.53613,-0.2783 -2.05371,-0.83493 -0.51758,-0.55664 -0.77636,-1.35449 -0.77636,-2.39356 0,-0.67187 0.11132,-1.25976 0.33398,-1.76367 0.22266,-0.5039 0.56152,-0.88183 1.0166,-1.13379 0.45508,-0.25195 0.95019,-0.37792 1.48535,-0.37793 0.67578,10e-6 1.22851,0.17091 1.65821,0.5127 0.42968,0.3418 0.70507,0.82715 0.82617,1.45605l-1.02539,0.1582c-0.0977,-0.41796 -0.27051,-0.73241 -0.51856,-0.94336 -0.24805,-0.21093 -0.54785,-0.3164 -0.89941,-0.3164 -0.53125,0 -0.96289,0.19043 -1.29492,0.57129 -0.33204,0.38086 -0.49805,0.9834 -0.49805,1.80761 0,0.83594 0.16015,1.44337 0.48047,1.82227 0.32031,0.37891 0.73828,0.56836 1.25391,0.56836 0.41405,0 0.75976,-0.12695 1.0371,-0.38086 0.27734,-0.2539 0.45312,-0.64453 0.52735,-1.17187z"/>
 <path d="m406.53345,998.4184 1.08984,0.13476c-0.17188,0.63672 -0.49024,1.13086 -0.95508,1.48244 -0.46485,0.3515 -1.05859,0.5273 -1.78125,0.5273 -0.91016,0 -1.63183,-0.2802 -2.16504,-0.84079 -0.5332,-0.56055 -0.7998,-1.34668 -0.7998,-2.3584 0,-1.04687 0.26953,-1.85937 0.80859,-2.4375 0.53906,-0.57812 1.23828,-0.86718 2.09766,-0.86719 0.83203,10e-6 1.51171,0.28321 2.03906,0.84961 0.52734,0.56641 0.79101,1.36329 0.79102,2.39063 -1e-5,0.0625 -0.002,0.15625 -0.006,0.28125l-4.64063,0c0.0391,0.68359 0.23242,1.20703 0.58008,1.57031 0.34765,0.36328 0.78125,0.54492 1.30078,0.54492 0.38672,0 0.7168,-0.10156 0.99024,-0.30469 0.27343,-0.20312 0.49023,-0.52734 0.65039,-0.97265zm-3.46289,-1.70508 3.47461,0c-0.0469,-0.52344 -0.1797,-0.91601 -0.39844,-1.17774 -0.33594,-0.40624 -0.77149,-0.60937 -1.30664,-0.60937 -0.48438,0 -0.89161,0.16211 -1.22168,0.48633 -0.33008,0.32422 -0.5127,0.75781 -0.54785,1.30078z"/>
 </g>
 </g>
 <path style="stroke:#000;stroke-width:2;stroke-linejoin:round" d="m191,862.36221 138.99955,0"/>
 <path style="stroke:#000;stroke-width:1.99954236" d="m190.99977,932.36241 139,0"/>
 <path style="stroke:#000;stroke-width:1.99953914" d="m190.99977,1002.3624 139,0"/>
 <g>
 <path d="m231.31105,858.36218c-0.53353,-0.67318 -0.9847,-1.46094 -1.35352,-2.36328 -0.36881,-0.90234 -0.55322,-1.83691 -0.55322,-2.80371 0,-0.85221 0.13786,-1.66861 0.41358,-2.44922 0.32226,-0.90592 0.81998,-1.80826 1.49316,-2.70703l0.69287,0c-0.43327,0.7448 -0.71973,1.27654 -0.85937,1.59522 -0.21843,0.49414 -0.3903,1.00977 -0.51563,1.54687 -0.15397,0.6696 -0.23096,1.34278 -0.23096,2.01953 0,1.72233 0.53532,3.44287 1.60596,5.16162z"/>
 <path d="m232.86867,853.98474 1.01513,-0.0859c0.0752,0.49415 0.24976,0.86565 0.52369,1.11451 0.27392,0.24886 0.60424,0.37329 0.99096,0.37329 0.46549,0 0.85937,-0.17546 1.18164,-0.52637 0.32226,-0.35091 0.4834,-0.8164 0.4834,-1.39648 0,-0.55143 -0.15487,-0.98649 -0.4646,-1.30518 -0.30973,-0.31868 -0.71525,-0.47802 -1.21655,-0.47803 -0.31153,1e-5 -0.59261,0.0707 -0.84326,0.21216 -0.25066,0.14144 -0.4476,0.32496 -0.59082,0.55054l-0.90772,-0.11817 0.7627,-4.04443 3.91553,0 0,0.92383 -3.14209,0 -0.42432,2.11621c0.47265,-0.32942 0.96858,-0.49414 1.48779,-0.49414 0.6875,0 1.26758,0.23812 1.74024,0.71435 0.47265,0.47624 0.70898,1.08855 0.70898,1.83692 0,0.71256 -0.20769,1.32845 -0.62305,1.84765 -0.50488,0.63737 -1.19417,0.95606 -2.06787,0.95606 -0.71615,0 -1.3007,-0.20052 -1.75366,-0.60156 -0.45296,-0.40104 -0.71167,-0.93278 -0.77612,-1.59522z"/>
 <path d="m239.89406,858.36218 -0.69287,0c1.07063,-1.71875 1.60595,-3.43929 1.60595,-5.16162 0,-0.67317 -0.077,-1.34098 -0.23095,-2.00342 -0.12175,-0.5371 -0.29183,-1.05272 -0.51026,-1.54687 -0.13965,-0.32226 -0.4279,-0.85937 -0.86474,-1.61133l0.69287,0c0.67317,0.89877 1.17089,1.80111 1.49316,2.70703 0.27572,0.78061 0.41357,1.59701 0.41358,2.44922 -1e-5,0.9668 -0.18531,1.90137 -0.55591,2.80371 -0.37061,0.90234 -0.82089,1.6901 -1.35083,2.36328z"/>
 <path d="m245.6089,853.68396 0,-0.97217 2.97022,0 0,0.97217z"/>
 <path d="m252.83302,856.04724 0,-7.87402 2.97022,0c0.52278,10e-6 0.92203,0.0251 1.19775,0.0752 0.38672,0.0645 0.71077,0.1871 0.97217,0.36792 0.26139,0.18084 0.47175,0.43417 0.6311,0.76001 0.15934,0.32586 0.23901,0.68393 0.23902,1.07422 -10e-6,0.6696 -0.21306,1.23625 -0.63916,1.69995 -0.42612,0.46371 -1.19597,0.69556 -2.30957,0.69556l-2.01953,0 0,3.20117zm1.042,-4.13037 2.03564,0c0.67317,0 1.1512,-0.12532 1.43408,-0.37598 0.28287,-0.25064 0.42431,-0.60334 0.42432,-1.0581 -1e-5,-0.32942 -0.0833,-0.61141 -0.24976,-0.84595 -0.16651,-0.23453 -0.38583,-0.3894 -0.65796,-0.4646 -0.17546,-0.0465 -0.49951,-0.0698 -0.97216,-0.0698l-2.01416,0z"/>
 <path d="m260.0464,856.04724 0,-5.7041 0.87012,0 0,0.86475c0.222,-0.40462 0.427,-0.67139 0.61499,-0.8003 0.18799,-0.1289 0.39477,-0.19335 0.62036,-0.19336 0.32584,10e-6 0.65706,0.10385 0.99365,0.31153l-0.333,0.89697c-0.23634,-0.13964 -0.47266,-0.20947 -0.70899,-0.20947 -0.21126,0 -0.40104,0.0636 -0.56934,0.19067 -0.16829,0.12712 -0.28825,0.30347 -0.35986,0.52905 -0.10742,0.34376 -0.16113,0.71973 -0.16113,1.12793l0,2.98633z"/>
 <path d="m263.37111,853.19519c0,-1.05631 0.29362,-1.8387 0.88086,-2.34717 0.49056,-0.42252 1.08854,-0.63378 1.79394,-0.63379 0.78418,10e-6 1.42513,0.25693 1.92286,0.77076 0.49771,0.51383 0.74657,1.22371 0.74658,2.12963 -10e-6,0.73406 -0.11012,1.31145 -0.33032,1.73218 -0.22022,0.42074 -0.5407,0.74748 -0.96143,0.98023 -0.42074,0.23274 -0.87997,0.34912 -1.37769,0.34912 -0.7985,0 -1.44393,-0.25602 -1.93628,-0.76807 -0.49235,-0.51204 -0.73852,-1.24967 -0.73852,-2.21289zm0.99365,0c0,0.73047 0.15934,1.27743 0.47803,1.64087 0.31868,0.36344 0.71972,0.54517 1.20312,0.54517 0.47982,0 0.87907,-0.18262 1.19776,-0.54786 0.31868,-0.36523 0.47802,-0.92203 0.47802,-1.67041 0,-0.7054 -0.16024,-1.23982 -0.48071,-1.60327 -0.32048,-0.36344 -0.71883,-0.54516 -1.19507,-0.54516 -0.4834,0 -0.88444,0.18083 -1.20312,0.54248 -0.31869,0.36165 -0.47803,0.90772 -0.47803,1.63818z"/>
 <path d="m271.96486,855.1825 0.13965,0.854c-0.27214,0.0573 -0.51563,0.0859 -0.73047,0.0859 -0.35091,0 -0.62305,-0.0555 -0.81641,-0.16651 -0.19336,-0.111 -0.32943,-0.25691 -0.4082,-0.43774 -0.0788,-0.18083 -0.11817,-0.56128 -0.11816,-1.14136l0,-3.28174 -0.70899,0 0,-0.75195 0.70899,0 0,-1.4126 0.96142,-0.58008 0,1.99268 0.97217,0 0,0.75195 -0.97217,0 0,3.33545c0,0.27572 0.017,0.45297 0.051,0.53174 0.034,0.0788 0.0895,0.14144 0.1665,0.18799 0.077,0.0466 0.18709,0.0698 0.33032,0.0698 0.10742,0 0.24886,-0.0125 0.42432,-0.0376z"/>
 <path d="m272.54494,853.19519c0,-1.05631 0.29362,-1.8387 0.88086,-2.34717 0.49055,-0.42252 1.08854,-0.63378 1.79394,-0.63379 0.78418,10e-6 1.42513,0.25693 1.92285,0.77076 0.49772,0.51383 0.74658,1.22371 0.74659,2.12963 -1e-5,0.73406 -0.11012,1.31145 -0.33033,1.73218 -0.22022,0.42074 -0.54069,0.74748 -0.96142,0.98023 -0.42074,0.23274 -0.87997,0.34912 -1.37769,0.34912 -0.7985,0 -1.44393,-0.25602 -1.93628,-0.76807 -0.49235,-0.51204 -0.73852,-1.24967 -0.73852,-2.21289zm0.99365,0c0,0.73047 0.15934,1.27743 0.47803,1.64087 0.31868,0.36344 0.71972,0.54517 1.20312,0.54517 0.47982,0 0.87907,-0.18262 1.19776,-0.54786 0.31868,-0.36523 0.47802,-0.92203 0.47802,-1.67041 0,-0.7054 -0.16024,-1.23982 -0.48071,-1.60327 -0.32048,-0.36344 -0.71883,-0.54516 -1.19507,-0.54516 -0.4834,0 -0.88444,0.18083 -1.20312,0.54248 -0.31869,0.36165 -0.47803,0.90772 -0.47803,1.63818z"/>
 <path d="m282.75002,853.95789 0.95068,0.12353c-0.10385,0.65528 -0.36972,1.16821 -0.79761,1.53882 -0.4279,0.3706 -0.95337,0.55591 -1.57641,0.55591 -0.78061,0 -1.40813,-0.25513 -1.88257,-0.76538 -0.47445,-0.51026 -0.71167,-1.24162 -0.71167,-2.1941 0,-0.61588 0.10205,-1.15478 0.30615,-1.61669 0.2041,-0.46191 0.51473,-0.80835 0.93188,-1.03931 0.41716,-0.23095 0.87101,-0.34643 1.36158,-0.34644 0.61946,10e-6 1.12613,0.15667 1.52002,0.46997 0.39387,0.31332 0.64631,0.75823 0.75732,1.33472l-0.93994,0.14502c-0.0895,-0.38313 -0.24797,-0.67138 -0.47534,-0.86475 -0.22738,-0.19335 -0.5022,-0.29003 -0.82447,-0.29003 -0.48698,0 -0.88265,0.17456 -1.18701,0.52368 -0.30436,0.34912 -0.45654,0.90145 -0.45654,1.65698 0,0.76628 0.14681,1.32308 0.44043,1.67041 0.29362,0.34733 0.67675,0.521 1.14941,0.521 0.37956,0 0.69645,-0.11638 0.95069,-0.34913 0.25422,-0.23274 0.41536,-0.59081 0.4834,-1.07421z"/>
 <path d="m284.16798,853.19519c0,-1.05631 0.29362,-1.8387 0.88086,-2.34717 0.49056,-0.42252 1.08854,-0.63378 1.79395,-0.63379 0.78417,10e-6 1.42512,0.25693 1.92285,0.77076 0.49772,0.51383 0.74658,1.22371 0.74658,2.12963 0,0.73406 -0.11011,1.31145 -0.33032,1.73218 -0.22022,0.42074 -0.54069,0.74748 -0.96143,0.98023 -0.42074,0.23274 -0.87996,0.34912 -1.37768,0.34912 -0.79851,0 -1.44393,-0.25602 -1.93628,-0.76807 -0.49235,-0.51204 -0.73853,-1.24967 -0.73853,-2.21289zm0.99366,0c-10e-6,0.73047 0.15934,1.27743 0.47802,1.64087 0.31869,0.36344 0.71973,0.54517 1.20313,0.54517 0.47981,0 0.87906,-0.18262 1.19775,-0.54786 0.31868,-0.36523 0.47803,-0.92203 0.47803,-1.67041 0,-0.7054 -0.16024,-1.23982 -0.48071,-1.60327 -0.32048,-0.36344 -0.71884,-0.54516 -1.19507,-0.54516 -0.4834,0 -0.88444,0.18083 -1.20313,0.54248 -0.31868,0.36165 -0.47803,0.90772 -0.47802,1.63818z"/>
 <path d="m290.62941,856.04724 0,-7.87402 0.9668,0 0,7.87402z"/>
 </g>
 <g>
 <path d="m231.31105,928.36218c-0.53353,-0.67318 -0.9847,-1.46094 -1.35352,-2.36328 -0.36881,-0.90234 -0.55322,-1.83691 -0.55322,-2.80371 0,-0.85221 0.13786,-1.66861 0.41358,-2.44922 0.32226,-0.90592 0.81998,-1.80826 1.49316,-2.70703l0.69287,0c-0.43327,0.7448 -0.71973,1.27654 -0.85937,1.59522 -0.21843,0.49414 -0.3903,1.00977 -0.51563,1.54687 -0.15397,0.6696 -0.23096,1.34278 -0.23096,2.01953 0,1.72233 0.53532,3.44287 1.60596,5.16162z"/>
 <path d="m235.96779,926.04724 0,-1.88525 -3.41602,0 0,-0.88623 3.59326,-5.10254 0.78956,0 0,5.10254 1.06347,0 0,0.88623 -1.06347,0 0,1.88525zm0,-2.77148 0,-3.5503 -2.46533,3.5503z"/>
 <path d="m239.89406,928.36218 -0.69287,0c1.07063,-1.71875 1.60595,-3.43929 1.60595,-5.16162 0,-0.67317 -0.077,-1.34098 -0.23095,-2.00342 -0.12175,-0.5371 -0.29183,-1.05272 -0.51026,-1.54687 -0.13965,-0.32226 -0.4279,-0.85937 -0.86474,-1.61133l0.69287,0c0.67317,0.89877 1.17089,1.80111 1.49316,2.70703 0.27572,0.78061 0.41357,1.59701 0.41358,2.44922 -1e-5,0.9668 -0.18531,1.90137 -0.55591,2.80371 -0.37061,0.90234 -0.82089,1.6901 -1.35083,2.36328z"/>
 <path d="m245.6089,923.68396 0,-0.97217 2.97022,0 0,0.97217z"/>
 <path d="m252.83302,926.04724 0,-7.87402 2.97022,0c0.52278,10e-6 0.92203,0.0251 1.19775,0.0752 0.38672,0.0645 0.71077,0.1871 0.97217,0.36792 0.26139,0.18084 0.47175,0.43417 0.6311,0.76001 0.15934,0.32586 0.23901,0.68393 0.23902,1.07422 -10e-6,0.6696 -0.21306,1.23625 -0.63916,1.69995 -0.42612,0.46371 -1.19597,0.69556 -2.30957,0.69556l-2.01953,0 0,3.20117zm1.042,-4.13037 2.03564,0c0.67317,0 1.1512,-0.12532 1.43408,-0.37598 0.28287,-0.25064 0.42431,-0.60334 0.42432,-1.0581 -1e-5,-0.32942 -0.0833,-0.61141 -0.24976,-0.84595 -0.16651,-0.23453 -0.38583,-0.3894 -0.65796,-0.4646 -0.17546,-0.0465 -0.49951,-0.0698 -0.97216,-0.0698l-2.01416,0z"/>
 <path d="m260.0464,926.04724 0,-5.7041 0.87012,0 0,0.86475c0.222,-0.40462 0.427,-0.67139 0.61499,-0.8003 0.18799,-0.1289 0.39477,-0.19335 0.62036,-0.19336 0.32584,10e-6 0.65706,0.10385 0.99365,0.31153l-0.333,0.89697c-0.23634,-0.13964 -0.47266,-0.20947 -0.70899,-0.20947 -0.21126,0 -0.40104,0.0636 -0.56934,0.19067 -0.16829,0.12712 -0.28825,0.30347 -0.35986,0.52905 -0.10742,0.34376 -0.16113,0.71973 -0.16113,1.12793l0,2.98633z"/>
 <path d="m263.37111,923.19519c0,-1.05631 0.29362,-1.8387 0.88086,-2.34717 0.49056,-0.42252 1.08854,-0.63378 1.79394,-0.63379 0.78418,10e-6 1.42513,0.25693 1.92286,0.77076 0.49771,0.51383 0.74657,1.22371 0.74658,2.12963 -10e-6,0.73406 -0.11012,1.31145 -0.33032,1.73218 -0.22022,0.42074 -0.5407,0.74748 -0.96143,0.98023 -0.42074,0.23274 -0.87997,0.34912 -1.37769,0.34912 -0.7985,0 -1.44393,-0.25602 -1.93628,-0.76807 -0.49235,-0.51204 -0.73852,-1.24967 -0.73852,-2.21289zm0.99365,0c0,0.73047 0.15934,1.27743 0.47803,1.64087 0.31868,0.36344 0.71972,0.54517 1.20312,0.54517 0.47982,0 0.87907,-0.18262 1.19776,-0.54786 0.31868,-0.36523 0.47802,-0.92203 0.47802,-1.67041 0,-0.7054 -0.16024,-1.23982 -0.48071,-1.60327 -0.32048,-0.36344 -0.71883,-0.54516 -1.19507,-0.54516 -0.4834,0 -0.88444,0.18083 -1.20312,0.54248 -0.31869,0.36165 -0.47803,0.90772 -0.47803,1.63818z"/>
 <path d="m271.96486,925.1825 0.13965,0.854c-0.27214,0.0573 -0.51563,0.0859 -0.73047,0.0859 -0.35091,0 -0.62305,-0.0555 -0.81641,-0.16651 -0.19336,-0.111 -0.32943,-0.25691 -0.4082,-0.43774 -0.0788,-0.18083 -0.11817,-0.56128 -0.11816,-1.14136l0,-3.28174 -0.70899,0 0,-0.75195 0.70899,0 0,-1.4126 0.96142,-0.58008 0,1.99268 0.97217,0 0,0.75195 -0.97217,0 0,3.33545c0,0.27572 0.017,0.45297 0.051,0.53174 0.034,0.0788 0.0895,0.14144 0.1665,0.18799 0.077,0.0466 0.18709,0.0698 0.33032,0.0698 0.10742,0 0.24886,-0.0125 0.42432,-0.0376z"/>
 <path d="m272.54494,923.19519c0,-1.05631 0.29362,-1.8387 0.88086,-2.34717 0.49055,-0.42252 1.08854,-0.63378 1.79394,-0.63379 0.78418,10e-6 1.42513,0.25693 1.92285,0.77076 0.49772,0.51383 0.74658,1.22371 0.74659,2.12963 -1e-5,0.73406 -0.11012,1.31145 -0.33033,1.73218 -0.22022,0.42074 -0.54069,0.74748 -0.96142,0.98023 -0.42074,0.23274 -0.87997,0.34912 -1.37769,0.34912 -0.7985,0 -1.44393,-0.25602 -1.93628,-0.76807 -0.49235,-0.51204 -0.73852,-1.24967 -0.73852,-2.21289zm0.99365,0c0,0.73047 0.15934,1.27743 0.47803,1.64087 0.31868,0.36344 0.71972,0.54517 1.20312,0.54517 0.47982,0 0.87907,-0.18262 1.19776,-0.54786 0.31868,-0.36523 0.47802,-0.92203 0.47802,-1.67041 0,-0.7054 -0.16024,-1.23982 -0.48071,-1.60327 -0.32048,-0.36344 -0.71883,-0.54516 -1.19507,-0.54516 -0.4834,0 -0.88444,0.18083 -1.20312,0.54248 -0.31869,0.36165 -0.47803,0.90772 -0.47803,1.63818z"/>
 <path d="m282.75002,923.95789 0.95068,0.12353c-0.10385,0.65528 -0.36972,1.16821 -0.79761,1.53882 -0.4279,0.3706 -0.95337,0.55591 -1.57641,0.55591 -0.78061,0 -1.40813,-0.25513 -1.88257,-0.76538 -0.47445,-0.51026 -0.71167,-1.24162 -0.71167,-2.1941 0,-0.61588 0.10205,-1.15478 0.30615,-1.61669 0.2041,-0.46191 0.51473,-0.80835 0.93188,-1.03931 0.41716,-0.23095 0.87101,-0.34643 1.36158,-0.34644 0.61946,10e-6 1.12613,0.15667 1.52002,0.46997 0.39387,0.31332 0.64631,0.75823 0.75732,1.33472l-0.93994,0.14502c-0.0895,-0.38313 -0.24797,-0.67138 -0.47534,-0.86475 -0.22738,-0.19335 -0.5022,-0.29003 -0.82447,-0.29003 -0.48698,0 -0.88265,0.17456 -1.18701,0.52368 -0.30436,0.34912 -0.45654,0.90145 -0.45654,1.65698 0,0.76628 0.14681,1.32308 0.44043,1.67041 0.29362,0.34733 0.67675,0.521 1.14941,0.521 0.37956,0 0.69645,-0.11638 0.95069,-0.34913 0.25422,-0.23274 0.41536,-0.59081 0.4834,-1.07421z"/>
 <path d="m284.16798,923.19519c0,-1.05631 0.29362,-1.8387 0.88086,-2.34717 0.49056,-0.42252 1.08854,-0.63378 1.79395,-0.63379 0.78417,10e-6 1.42512,0.25693 1.92285,0.77076 0.49772,0.51383 0.74658,1.22371 0.74658,2.12963 0,0.73406 -0.11011,1.31145 -0.33032,1.73218 -0.22022,0.42074 -0.54069,0.74748 -0.96143,0.98023 -0.42074,0.23274 -0.87996,0.34912 -1.37768,0.34912 -0.79851,0 -1.44393,-0.25602 -1.93628,-0.76807 -0.49235,-0.51204 -0.73853,-1.24967 -0.73853,-2.21289zm0.99366,0c-10e-6,0.73047 0.15934,1.27743 0.47802,1.64087 0.31869,0.36344 0.71973,0.54517 1.20313,0.54517 0.47981,0 0.87906,-0.18262 1.19775,-0.54786 0.31868,-0.36523 0.47803,-0.92203 0.47803,-1.67041 0,-0.7054 -0.16024,-1.23982 -0.48071,-1.60327 -0.32048,-0.36344 -0.71884,-0.54516 -1.19507,-0.54516 -0.4834,0 -0.88444,0.18083 -1.20313,0.54248 -0.31868,0.36165 -0.47803,0.90772 -0.47802,1.63818z"/>
 <path d="m290.62941,926.04724 0,-7.87402 0.9668,0 0,7.87402z"/>
 </g>
 <g>
 <path d="m231.31105,998.3623c-0.53353,-0.67317 -0.9847,-1.46093 -1.35352,-2.36328 -0.36881,-0.90234 -0.55322,-1.83691 -0.55322,-2.80371 0,-0.85221 0.13786,-1.66861 0.41358,-2.44922 0.32226,-0.90591 0.81998,-1.80826 1.49316,-2.70703l0.69287,0c-0.43327,0.7448 -0.71973,1.27654 -0.85937,1.59522 -0.21843,0.49414 -0.3903,1.00977 -0.51563,1.54687 -0.15397,0.6696 -0.23096,1.34278 -0.23096,2.01953 0,1.72234 0.53532,3.44287 1.60596,5.16162z"/>
 <path d="m232.87404,993.96875 0.9668,-0.12891c0.111,0.54786 0.29988,0.94263 0.56665,1.18433 0.26676,0.2417 0.59171,0.36255 0.97485,0.36255 0.45475,0 0.83878,-0.15755 1.1521,-0.47266 0.31331,-0.3151 0.46997,-0.7054 0.46997,-1.1709 0,-0.444 -0.14502,-0.81013 -0.43506,-1.09838 -0.29004,-0.28825 -0.65886,-0.43237 -1.10644,-0.43238 -0.18262,10e-6 -0.41,0.0358 -0.68213,0.10742l0.10742,-0.84863c0.0644,0.007 0.11637,0.0108 0.15576,0.0107 0.41178,10e-6 0.78239,-0.10741 1.11182,-0.32226 0.32942,-0.21484 0.49413,-0.54606 0.49414,-0.99365 -1e-5,-0.35449 -0.11996,-0.64811 -0.35987,-0.88086 -0.23991,-0.23274 -0.54964,-0.34912 -0.92919,-0.34912 -0.37598,0 -0.6893,0.11817 -0.93995,0.35449 -0.25065,0.23633 -0.41178,0.59082 -0.48339,1.06347l-0.9668,-0.17187c0.11816,-0.64811 0.38672,-1.1503 0.80566,-1.50659 0.41895,-0.35628 0.93994,-0.53442 1.56299,-0.53443 0.42968,10e-6 0.82536,0.0922 1.18701,0.27661 0.36165,0.18442 0.63826,0.43597 0.82984,0.75464 0.19156,0.31869 0.28734,0.65707 0.28735,1.01514 -1e-5,0.34017 -0.0913,0.64991 -0.27393,0.9292 -0.18262,0.2793 -0.45296,0.50131 -0.81103,0.66601 0.46549,0.10743 0.82714,0.33033 1.08496,0.66871 0.25781,0.33838 0.38671,0.7618 0.38672,1.27026 -1e-5,0.6875 -0.25066,1.27026 -0.75195,1.74829 -0.50131,0.47803 -1.1351,0.71704 -1.90137,0.71704 -0.69108,0 -1.2649,-0.20589 -1.72144,-0.61767 -0.45654,-0.41179 -0.71704,-0.94532 -0.78149,-1.60059z"/>
 <path d="m239.89406,998.3623 -0.69287,0c1.07063,-1.71875 1.60595,-3.43928 1.60595,-5.16162 0,-0.67317 -0.077,-1.34098 -0.23095,-2.00341 -0.12175,-0.53711 -0.29183,-1.05273 -0.51026,-1.54688 -0.13965,-0.32226 -0.4279,-0.85937 -0.86474,-1.61133l0.69287,0c0.67317,0.89877 1.17089,1.80112 1.49316,2.70703 0.27572,0.78061 0.41357,1.59701 0.41358,2.44922 -1e-5,0.9668 -0.18531,1.90137 -0.55591,2.80371 -0.37061,0.90235 -0.82089,1.69011 -1.35083,2.36328z"/>
 <path d="m245.6089,993.68408 0,-0.97217 2.97022,0 0,0.97217z"/>
 <path d="m252.83302,996.04736 0,-7.87402 2.97022,0c0.52278,10e-6 0.92203,0.0251 1.19775,0.0752 0.38672,0.0645 0.71077,0.1871 0.97217,0.36792 0.26139,0.18083 0.47175,0.43417 0.6311,0.76 0.15934,0.32586 0.23901,0.68393 0.23902,1.07422 -10e-6,0.6696 -0.21306,1.23625 -0.63916,1.69995 -0.42612,0.46371 -1.19597,0.69556 -2.30957,0.69556l-2.01953,0 0,3.20117zm1.042,-4.13037 2.03564,0c0.67317,10e-6 1.1512,-0.12532 1.43408,-0.37597 0.28287,-0.25065 0.42431,-0.60335 0.42432,-1.05811 -1e-5,-0.32942 -0.0833,-0.6114 -0.24976,-0.84595 -0.16651,-0.23453 -0.38583,-0.38939 -0.65796,-0.4646 -0.17546,-0.0465 -0.49951,-0.0698 -0.97216,-0.0698l-2.01416,0z"/>
 <path d="m260.0464,996.04736 0,-5.7041 0.87012,0 0,0.86475c0.222,-0.40462 0.427,-0.67138 0.61499,-0.8003 0.18799,-0.1289 0.39477,-0.19335 0.62036,-0.19335 0.32584,0 0.65706,0.10384 0.99365,0.31152l-0.333,0.89697c-0.23634,-0.13964 -0.47266,-0.20947 -0.70899,-0.20947 -0.21126,0 -0.40104,0.0636 -0.56934,0.19067 -0.16829,0.12712 -0.28825,0.30347 -0.35986,0.52906 -0.10742,0.34375 -0.16113,0.71973 -0.16113,1.12793l0,2.98632z"/>
 <path d="m263.37111,993.19531c0,-1.05631 0.29362,-1.8387 0.88086,-2.34717 0.49056,-0.42252 1.08854,-0.63378 1.79394,-0.63378 0.78418,0 1.42513,0.25692 1.92286,0.77075 0.49771,0.51384 0.74657,1.22372 0.74658,2.12964 -10e-6,0.73405 -0.11012,1.31144 -0.33032,1.73217 -0.22022,0.42074 -0.5407,0.74748 -0.96143,0.98023 -0.42074,0.23275 -0.87997,0.34912 -1.37769,0.34912 -0.7985,0 -1.44393,-0.25602 -1.93628,-0.76807 -0.49235,-0.51204 -0.73852,-1.24967 -0.73852,-2.21289zm0.99365,0c0,0.73047 0.15934,1.27743 0.47803,1.64087 0.31868,0.36345 0.71972,0.54517 1.20312,0.54517 0.47982,0 0.87907,-0.18262 1.19776,-0.54785 0.31868,-0.36524 0.47802,-0.92204 0.47802,-1.67041 0,-0.7054 -0.16024,-1.23983 -0.48071,-1.60328 -0.32048,-0.36343 -0.71883,-0.54516 -1.19507,-0.54516 -0.4834,0 -0.88444,0.18083 -1.20312,0.54248 -0.31869,0.36166 -0.47803,0.90772 -0.47803,1.63818z"/>
 <path d="m271.96486,995.18262 0.13965,0.854c-0.27214,0.0573 -0.51563,0.0859 -0.73047,0.0859 -0.35091,0 -0.62305,-0.0555 -0.81641,-0.16651 -0.19336,-0.111 -0.32943,-0.25691 -0.4082,-0.43774 -0.0788,-0.18083 -0.11817,-0.56128 -0.11816,-1.14136l0,-3.28174 -0.70899,0 0,-0.75195 0.70899,0 0,-1.4126 0.96142,-0.58007 0,1.99267 0.97217,0 0,0.75195 -0.97217,0 0,3.33545c0,0.27572 0.017,0.45297 0.051,0.53174 0.034,0.0788 0.0895,0.14144 0.1665,0.18799 0.077,0.0466 0.18709,0.0698 0.33032,0.0698 0.10742,1e-5 0.24886,-0.0125 0.42432,-0.0376z"/>
 <path d="m272.54494,993.19531c0,-1.05631 0.29362,-1.8387 0.88086,-2.34717 0.49055,-0.42252 1.08854,-0.63378 1.79394,-0.63378 0.78418,0 1.42513,0.25692 1.92285,0.77075 0.49772,0.51384 0.74658,1.22372 0.74659,2.12964 -1e-5,0.73405 -0.11012,1.31144 -0.33033,1.73217 -0.22022,0.42074 -0.54069,0.74748 -0.96142,0.98023 -0.42074,0.23275 -0.87997,0.34912 -1.37769,0.34912 -0.7985,0 -1.44393,-0.25602 -1.93628,-0.76807 -0.49235,-0.51204 -0.73852,-1.24967 -0.73852,-2.21289zm0.99365,0c0,0.73047 0.15934,1.27743 0.47803,1.64087 0.31868,0.36345 0.71972,0.54517 1.20312,0.54517 0.47982,0 0.87907,-0.18262 1.19776,-0.54785 0.31868,-0.36524 0.47802,-0.92204 0.47802,-1.67041 0,-0.7054 -0.16024,-1.23983 -0.48071,-1.60328 -0.32048,-0.36343 -0.71883,-0.54516 -1.19507,-0.54516 -0.4834,0 -0.88444,0.18083 -1.20312,0.54248 -0.31869,0.36166 -0.47803,0.90772 -0.47803,1.63818z"/>
 <path d="m282.75002,993.95801 0.95068,0.12353c-0.10385,0.65528 -0.36972,1.16822 -0.79761,1.53882 -0.4279,0.37061 -0.95337,0.55591 -1.57641,0.55591 -0.78061,0 -1.40813,-0.25513 -1.88257,-0.76538 -0.47445,-0.51025 -0.71167,-1.24162 -0.71167,-2.19409 0,-0.61589 0.10205,-1.15478 0.30615,-1.6167 0.2041,-0.46191 0.51473,-0.80835 0.93188,-1.03931 0.41716,-0.23095 0.87101,-0.34643 1.36158,-0.34643 0.61946,0 1.12613,0.15666 1.52002,0.46997 0.39387,0.31332 0.64631,0.75822 0.75732,1.33471l-0.93994,0.14502c-0.0895,-0.38313 -0.24797,-0.67138 -0.47534,-0.86474 -0.22738,-0.19336 -0.5022,-0.29004 -0.82447,-0.29004 -0.48698,0 -0.88265,0.17456 -1.18701,0.52368 -0.30436,0.34912 -0.45654,0.90145 -0.45654,1.65698 0,0.76628 0.14681,1.32308 0.44043,1.67041 0.29362,0.34733 0.67675,0.521 1.14941,0.521 0.37956,0 0.69645,-0.11638 0.95069,-0.34912 0.25422,-0.23275 0.41536,-0.59082 0.4834,-1.07422z"/>
 <path d="m284.16798,993.19531c0,-1.05631 0.29362,-1.8387 0.88086,-2.34717 0.49056,-0.42252 1.08854,-0.63378 1.79395,-0.63378 0.78417,0 1.42512,0.25692 1.92285,0.77075 0.49772,0.51384 0.74658,1.22372 0.74658,2.12964 0,0.73405 -0.11011,1.31144 -0.33032,1.73217 -0.22022,0.42074 -0.54069,0.74748 -0.96143,0.98023 -0.42074,0.23275 -0.87996,0.34912 -1.37768,0.34912 -0.79851,0 -1.44393,-0.25602 -1.93628,-0.76807 -0.49235,-0.51204 -0.73853,-1.24967 -0.73853,-2.21289zm0.99366,0c-10e-6,0.73047 0.15934,1.27743 0.47802,1.64087 0.31869,0.36345 0.71973,0.54517 1.20313,0.54517 0.47981,0 0.87906,-0.18262 1.19775,-0.54785 0.31868,-0.36524 0.47803,-0.92204 0.47803,-1.67041 0,-0.7054 -0.16024,-1.23983 -0.48071,-1.60328 -0.32048,-0.36343 -0.71884,-0.54516 -1.19507,-0.54516 -0.4834,0 -0.88444,0.18083 -1.20313,0.54248 -0.31868,0.36166 -0.47803,0.90772 -0.47802,1.63818z"/>
 <path d="m290.62941,996.04736 0,-7.87402 0.9668,0 0,7.87402z"/>
 </g>
 <g transform="translate(0.04498848,0)">
 <path d="m143.5,844.94059 0,-16.22646" style="stroke:#000;stroke-width:2.8483727;stroke-linecap:round"/>
 <path d="m143.5,1025.9897 0,-16.2727" style="stroke:#000;stroke-width:2.85243392;stroke-linecap:round"/>
 <path d="m143.5,984.88547 0,-45.05421" style="stroke:#000;stroke-width:2.97"/>
 <path d="m143.5,914.88547 0,-45.05421" style="stroke:#000;stroke-width:2.97"/>
 <path transform="translate(0,802.36218)" d="m145,18.5c0,0.828427 -0.67157,1.5 -1.5,1.5 -0.82843,0 -1.5,-0.671573 -1.5,-1.5 0,-0.828427 0.67157,-1.5 1.5,-1.5 0.82843,0 1.5,0.671573 1.5,1.5z" style="fill-rule:evenodd"/>
 <path d="m145,18.5c0,0.828427 -0.67157,1.5 -1.5,1.5 -0.82843,0 -1.5,-0.671573 -1.5,-1.5 0,-0.828427 0.67157,-1.5 1.5,-1.5 0.82843,0 1.5,0.671573 1.5,1.5z" style="fill-rule:evenodd" transform="translate(0,796.36218)"/>
 <path d="m145,18.5c0,0.828427 -0.67157,1.5 -1.5,1.5 -0.82843,0 -1.5,-0.671573 -1.5,-1.5 0,-0.828427 0.67157,-1.5 1.5,-1.5 0.82843,0 1.5,0.671573 1.5,1.5z" style="fill-rule:evenodd" transform="translate(0,790.36218)"/>
 <path d="m145,18.5c0,0.828427 -0.67157,1.5 -1.5,1.5 -0.82843,0 -1.5,-0.671573 -1.5,-1.5 0,-0.828427 0.67157,-1.5 1.5,-1.5 0.82843,0 1.5,0.671573 1.5,1.5z" style="fill-rule:evenodd" transform="translate(0,1027.3622)"/>
 <path d="m145,18.5c0,0.828427 -0.67157,1.5 -1.5,1.5 -0.82843,0 -1.5,-0.671573 -1.5,-1.5 0,-0.828427 0.67157,-1.5 1.5,-1.5 0.82843,0 1.5,0.671573 1.5,1.5z" style="fill-rule:evenodd" transform="translate(0,1021.3622)"/>
 <path d="m145,18.5c0,0.828427 -0.67157,1.5 -1.5,1.5 -0.82843,0 -1.5,-0.671573 -1.5,-1.5 0,-0.828427 0.67157,-1.5 1.5,-1.5 0.82843,0 1.5,0.671573 1.5,1.5z" style="fill-rule:evenodd" transform="translate(0,1015.3622)"/>
 </g>
 <g transform="translate(233.04499,0)">
 <path d="m143.5,844.94059 0,-16.22646" style="stroke:#000;stroke-width:2.8483727;stroke-linecap:round"/>
 <path d="m143.57448,1025.9897 0,-16.2727" style="stroke:#000;stroke-width:2.85243392;stroke-linecap:round"/>
 <path d="m143.57448,984.88547 0,-45.05421" style="stroke:#000;stroke-width:2.97"/>
 <path d="m143.57448,914.88547 0,-45.05421" style="stroke:#000;stroke-width:2.97"/>
 <path transform="translate(0,802.36218)" d="m145,18.5c0,0.828427 -0.67157,1.5 -1.5,1.5 -0.82843,0 -1.5,-0.671573 -1.5,-1.5 0,-0.828427 0.67157,-1.5 1.5,-1.5 0.82843,0 1.5,0.671573 1.5,1.5z" style="fill-rule:evenodd"/>
 <path d="m145,18.5c0,0.828427 -0.67157,1.5 -1.5,1.5 -0.82843,0 -1.5,-0.671573 -1.5,-1.5 0,-0.828427 0.67157,-1.5 1.5,-1.5 0.82843,0 1.5,0.671573 1.5,1.5z" style="fill-rule:evenodd" transform="translate(0,796.36218)"/>
 <path d="m145,18.5c0,0.828427 -0.67157,1.5 -1.5,1.5 -0.82843,0 -1.5,-0.671573 -1.5,-1.5 0,-0.828427 0.67157,-1.5 1.5,-1.5 0.82843,0 1.5,0.671573 1.5,1.5z" style="fill-rule:evenodd" transform="translate(0,790.36218)"/>
 <path d="m145,18.5c0,0.828427 -0.67157,1.5 -1.5,1.5 -0.82843,0 -1.5,-0.671573 -1.5,-1.5 0,-0.828427 0.67157,-1.5 1.5,-1.5 0.82843,0 1.5,0.671573 1.5,1.5z" style="fill-rule:evenodd" transform="translate(0,1027.3622)"/>
 <path d="m145,18.5c0,0.828427 -0.67157,1.5 -1.5,1.5 -0.82843,0 -1.5,-0.671573 -1.5,-1.5 0,-0.828427 0.67157,-1.5 1.5,-1.5 0.82843,0 1.5,0.671573 1.5,1.5z" style="fill-rule:evenodd" transform="translate(0,1021.3622)"/>
 <path d="m145,18.5c0,0.828427 -0.67157,1.5 -1.5,1.5 -0.82843,0 -1.5,-0.671573 -1.5,-1.5 0,-0.828427 0.67157,-1.5 1.5,-1.5 0.82843,0 1.5,0.671573 1.5,1.5z" style="fill-rule:evenodd" transform="translate(0,1015.3622)"/>
 </g>
 </g>
 </svg>
